<?xml version="1.0" encoding="utf-8"?>
<!-- Generator: Adobe Illustrator 25.0.1, SVG Export Plug-In . SVG Version: 6.00 Build 0)  -->
<svg version="1.1" id="Layer_1" xmlns="http://www.w3.org/2000/svg" xmlns:xlink="http://www.w3.org/1999/xlink" x="0px" y="0px"
	 viewBox="0 0 1600 1600" style="enable-background:new 0 0 1600 1600;" xml:space="preserve">
<style type="text/css">
	.st0{fill:url(#SVGID_1_);}
	.st1{fill:#FFFFFF;}
</style>
<g>
	<linearGradient id="SVGID_1_" gradientUnits="userSpaceOnUse" x1="109.6573" y1="542.5187" x2="1410.8088" y2="1027.817">
		<stop  offset="0" style="stop-color:#4084F6"/>
		<stop  offset="0.1032" style="stop-color:#3D71F3"/>
		<stop  offset="0.3929" style="stop-color:#3542EC"/>
		<stop  offset="0.6493" style="stop-color:#2F20E7"/>
		<stop  offset="0.8605" style="stop-color:#2B0CE4"/>
		<stop  offset="1" style="stop-color:#2A04E3"/>
	</linearGradient>
	<path class="st0" d="M1185,1495.5H415c-171.5,0-310.5-139-310.5-310.5V415c0-171.5,139-310.5,310.5-310.5h770
		c171.5,0,310.5,139,310.5,310.5v770C1495.5,1356.5,1356.5,1495.5,1185,1495.5z"/>
	<g>
		
			<image style="overflow:visible;opacity:0.3;" width="3910" height="3117" xlink:href="5D5A38AD.png"  transform="matrix(0.24 0 0 0.24 368.64 373.68)">
		</image>
		<g>
			<g>
				<path class="st1" d="M506.6,535.7c-1.9-14.2,3.7-21.3,16.8-21.3c5.8,0,11.4,1.6,16.8,4.9c37.7,26.1,98.6,45.7,182.6,59
					c12.1,2.1,24.2,3.6,36.3,4.5c12.1,0.9,24.4,1.4,37,1.4c26.5,0,53.6-2.4,81.3-7.2c27.7-4.8,55.6-11.6,83.8-20.4
					c33-10.9,71.3-29.1,114.8-54.5c43.5-25.4,91.7-57.8,144.5-97.4c8.1-6.3,15-11.1,20.4-14.5c5.5-3.4,9.6-5.6,12.4-6.8
					c2.1-0.5,4.2-0.9,6.3-1.2c2.1-0.3,4-0.5,5.6-0.5c17.2,0,25.8,8.6,25.8,25.8c0,10-7.6,20.6-22.7,31.8
					c-48.9,32.6-87.6,58.5-116.1,77.8c-28.5,19.3-47.2,32.1-56,38.4c-91.7,53.5-180,84-264.9,91.5c-7.2,0.5-14.5,0.9-22,1.4
					c-7.5,0.5-14.8,0.7-22,0.7c-60,0-117.4-9.5-172.1-28.6c-21.9-7.9-40.7-16.4-56.4-25.3c-15.7-9-28.1-18.3-37.2-28.1
					c-4.2-4.9-7.6-9.9-10.1-15C508.9,547,507.3,541.5,506.6,535.7z M873.9,711.8c7.4-8.4,14.5-12.6,21.3-12.6
					c6.5,0,12.2,3.7,17.1,11.2c4,7.2,5.6,14,4.9,20.2c-2.3,11.6-6.3,21.1-11.9,28.4c-5.6,7.3-12.6,11-20.9,11
					c-16.3,0-24.4-8.8-24.4-26.5C859.9,733.4,864.6,722.8,873.9,711.8z"/>
				<path class="st1" d="M788,757.5c-9.8-8.3-23.7-15.5-41.9-21.8c-17.7-6.5-40.1-14.7-67.4-24.4c-27.2-9.8-58.9-21.2-95-34.2
					c-8.6,4.4-12.9,10-12.9,16.8c0,4.7,2.2,10.2,6.5,16.6c4.3,6.4,11.1,13.2,20.4,20.4c-13.5,8.2-25.9,17.1-37.4,26.9
					c-11.4,9.8-20.5,19.2-27.2,28.3c-8.4,11.4-12.6,23.6-12.6,36.6c0,12.1,2.3,22.5,7,31.1c4.7,8.6,12,15.7,22,21.3
					c-5.6,2.6-13.5,4.3-23.7,5.2c-8.6,0.8-18.9,1.2-30.7,1.1v-0.1c-43.1-1.2-64.6-18.3-64.6-51.3c0-9.1,2.8-25.5,8.4-49.2
					c2.8-11.6,6.8-23.8,12.2-36.3c5.4-12.6,11.7-25.6,19.2-39.1c14.4-25.4,21.6-39.4,21.6-42.2c0-9.3-4.5-14-13.6-14
					c-11.9,0-27.4,13.5-46.4,40.5c-19.3,26.5-33.2,54.1-41.5,82.7c-9.1,29.1-13.6,53.3-13.6,72.6c0,23,5.6,42.8,16.8,59.3
					c10.5,15.1,24.2,25.8,41.2,32.1c15.5,5.7,33.7,8.8,54.4,9.3l0,0.1c7,0.2,11.8,0.3,20.4-1.1c8.5-1.4,18.6-3.6,30.9-7.3
					c14.9-5.4,29.2-11.8,42.9-19.4c13.7-7.6,25.9-16.6,36.7-27.1c8.8,0.2,17.7,0.1,26.5-0.5c8.8-0.6,17.2-1.1,25.1-1.6
					c9.8-1.4,19.4-3.4,29-5.9c9.5-2.6,18.4-6,26.5-10.5c10.2-5.6,20.5-13,30.7-22.2c10.2-9.2,19.6-19.7,28.3-31.6
					c5.6-6.3,9.7-12.5,12.4-18.5c2.7-6,4-11.4,4-16.1C802.7,774.7,797.8,765.8,788,757.5z M647.9,775.1c-0.1,2.1-0.8,4.4-1.9,7h0.3
					c-3,6.3-5.7,11.3-8,15.2c-2.3,3.8-4.2,6.7-5.6,8.6c-4,5.6-8.7,11.5-14.1,17.8c-3.2,3.7-6.6,7.3-10.2,11
					c-6.5,6.6-16.4,8.9-24.9,5.1c-5.8-2.5-8.7-6.9-8.7-13c0-8.6,4.9-19.3,14.7-32.1c10-12.3,19.3-21.4,27.9-27.2
					c3.5-2.8,6.9-4.8,10.3-6.1c3.4-1.3,6.6-1.9,9.6-1.9c7.2,0,10.8,3.4,10.8,10.1C648.1,771.2,648,773,647.9,775.1z M717.5,820.8
					c-13.7,11.2-30.5,18.2-50.3,21c1.4-1.6,3.1-3.9,5.1-6.8c2-2.9,4.5-6.3,7.5-10.3c10.5-14.1,17.9-27.5,22.2-40.3
					c4.3-12.6,20-17.4,29.9-8.5c3.9,3.5,5.8,8.2,5.8,14.2C737.8,800.6,731,810.9,717.5,820.8z"/>
				<path class="st1" d="M791.5,1103.6c1.5,0,3,0,4.5-0.1v-0.4C794.5,1103.3,793,1103.4,791.5,1103.6z"/>
				<path class="st1" d="M1213.8,654.3c-8.6,0-19.9,2-33.9,5.9c-4.9,1.6-17,8.1-36.5,19.4c-19.4,11.3-46.2,27.9-80.5,49.7
					c-32.8,20.5-67.2,40.4-103.2,59.7c-36,19.3-72.2,37.2-108.7,53.8c-11.9,4.9-21,10.5-27.4,16.9c-6.4,6.4-9.8,13-10.3,19.7
					c-1.2,14.2,4.9,21.3,18.2,21.3h1c38.4-14.9,93.4-42.2,165.1-82c35.6-20.2,72.6-41.9,111-65.1c38.4-23.2,78.5-48.2,120.4-75.2
					c3.5-2.3,5.3-5.1,5.6-8.4C1235.9,661.1,1228.9,655.9,1213.8,654.3z M787.9,1103.6v0.3c1.2-0.1,2.4-0.2,3.6-0.3
					C790.3,1103.6,789.1,1103.6,787.9,1103.6z"/>
				<path class="st1" d="M619,1098.2c18.1-17.2,32.1-32.8,41.9-46.8c9.8-14.2,17.5-25.6,23-34.2c5.6-8.6,9.4-14.7,11.5-18.1
					c2.8,0.2,5.2,1.8,7.3,4.9c2.1,3,3.8,7,5.2,11.9c7.2,38.6,16.4,63.4,27.6,74.3c10.3,8.9,27.8,13.3,52.4,13.4c1.2,0,2.4,0,3.6,0
					c1.5-0.1,3-0.3,4.5-0.5c15-1.8,28.8-6,41.4-12.5c14.8-7.7,26.6-17.4,35.4-29.3c17.9-23.7,26.5-51,25.8-81.7
					c-1.2-30.3-5.7-51-13.6-62.1c-5.4-7.2-15-10.8-29-10.8c-15.6,0-22.3,6.9-20.2,20.6c4.6,17.5,7,34.1,7,49.9
					c0,38.3-18,58.9-53.9,61.7c-14.9-0.3-25.1-1.7-30.6-4.1c-6.3-3-14.1-21.1-23.4-54.1c-9.3-30.9-19.5-46.8-30.7-47.5
					c-11.2-1.2-20.1,3.1-26.9,12.9c-23.5,41-49.3,75.9-77.5,104.9l-14.8,17.8c-6.1,7.3-6.9,17.7-2.1,25.9l0,0
					c7.4,12.6,24.6,14.9,35.1,4.7L619,1098.2z"/>
			</g>
		</g>
	</g>
</g>
<g>
	
		<image style="overflow:visible;opacity:0.3;" width="2842" height="2271" xlink:href="5D5A38AF.png"  transform="matrix(0.24 0 0 0.24 1729.6 502.4031)">
	</image>
	<g>
		<g>
			<path class="st1" d="M1831.1,621.2c-1.3-10.2,2.7-15.3,12.1-15.3c4.2,0,8.2,1.2,12.1,3.5c27.1,18.8,70.9,32.9,131.3,42.4
				c8.7,1.5,17.4,2.6,26.1,3.3c8.7,0.7,17.6,1,26.6,1c19.1,0,38.6-1.7,58.5-5.1c19.9-3.4,40-8.3,60.3-14.7
				c23.8-7.9,51.3-20.9,82.6-39.2c31.3-18.2,66-41.6,104-70.1c5.9-4.5,10.8-8,14.7-10.4c3.9-2.4,6.9-4.1,8.9-4.9
				c1.5-0.3,3-0.6,4.5-0.9c1.5-0.2,2.8-0.4,4-0.4c12.4,0,18.6,6.2,18.6,18.6c0,7.2-5.4,14.8-16.3,22.9c-35.2,23.4-63,42.1-83.5,56
				c-20.5,13.9-33.9,23.1-40.3,27.6c-66,38.5-129.5,60.4-190.6,65.8c-5.2,0.3-10.5,0.7-15.8,1c-5.4,0.3-10.6,0.5-15.8,0.5
				c-43.2,0-84.5-6.9-123.8-20.6c-15.7-5.7-29.3-11.8-40.6-18.2c-11.3-6.4-20.2-13.2-26.7-20.2c-3-3.5-5.4-7.1-7.3-10.8
				C1832.8,629.3,1831.6,625.4,1831.1,621.2z M2095.4,748c5.4-6,10.5-9,15.3-9c4.7,0,8.8,2.7,12.3,8c2.8,5.2,4,10,3.5,14.6
				c-1.7,8.4-4.5,15.2-8.5,20.5c-4,5.3-9,7.9-15.1,7.9c-11.7,0-17.6-6.4-17.6-19.1C2085.4,763.4,2088.7,755.8,2095.4,748z"/>
			<path class="st1" d="M2033.6,780.8c-7-5.9-17.1-11.2-30.1-15.7c-12.7-4.7-28.9-10.6-48.5-17.6c-19.6-7-42.4-15.2-68.3-24.6
				c-6.2,3.2-9.3,7.2-9.3,12.1c0,3.4,1.6,7.3,4.6,11.9c3.1,4.6,8,9.5,14.7,14.7c-9.7,5.9-18.7,12.3-26.9,19.3
				c-8.2,7-14.7,13.8-19.6,20.3c-6,8.2-9,17-9,26.4c0,8.7,1.7,16.2,5,22.3c3.4,6.2,8.6,11.3,15.8,15.3c-4,1.8-9.7,3.1-17.1,3.8
				c-6.2,0.6-13.6,0.8-22.1,0.8v0c-31-0.8-46.5-13.1-46.5-36.9c0-6.5,2-18.3,6-35.4c2-8.4,4.9-17.1,8.8-26.1
				c3.8-9,8.4-18.4,13.8-28.1c10.4-18.3,15.6-28.4,15.6-30.4c0-6.7-3.3-10.1-9.8-10.1c-8.5,0-19.7,9.7-33.4,29.1
				c-13.9,19.1-23.9,38.9-29.9,59.5c-6.5,20.9-9.8,38.3-9.8,52.2c0,16.6,4,30.8,12.1,42.7c7.5,10.9,17.4,18.6,29.6,23.1
				c11.2,4.1,24.2,6.4,39.2,6.7l0,0.1c5,0.1,8.5,0.2,14.7-0.8c6.1-1,13.4-2.6,22.2-5.2c10.7-3.8,21-8.5,30.9-13.9
				c9.9-5.4,18.7-11.9,26.4-19.5c6.4,0.2,12.7,0,19.1-0.4c6.4-0.4,12.4-0.8,18.1-1.1c7-1,14-2.4,20.8-4.3c6.9-1.8,13.2-4.3,19.1-7.5
				c7.4-4,14.7-9.3,22.1-15.9c7.4-6.6,14.1-14.2,20.3-22.7c4-4.5,7-9,8.9-13.3c1.9-4.3,2.9-8.2,2.9-11.5
				C2044.2,793.2,2040.7,786.8,2033.6,780.8z M1932.8,793.5c-0.1,1.5-0.5,3.2-1.4,5h0.2c-2.2,4.5-4.1,8.2-5.8,10.9
				c-1.7,2.8-3,4.8-4,6.2c-2.9,4-6.2,8.3-10.2,12.8c-2.3,2.6-4.8,5.3-7.4,7.9c-4.7,4.7-11.8,6.4-17.9,3.7c-4.2-1.8-6.2-4.9-6.2-9.3
				c0-6.2,3.5-13.9,10.6-23.1c7.2-8.9,13.9-15.4,20.1-19.6c2.5-2,5-3.5,7.4-4.4c2.4-0.9,4.7-1.4,6.9-1.4c5.2,0,7.8,2.4,7.8,7.3
				C1932.9,790.7,1932.9,792,1932.8,793.5z M1982.9,826.4c-9.9,8-21.9,13.1-36.2,15.1c1-1.2,2.2-2.8,3.7-4.9
				c1.4-2.1,3.2-4.6,5.4-7.4c7.5-10.1,12.9-19.8,16-29c3.1-9,14.4-12.5,21.5-6.1c2.8,2.5,4.2,5.9,4.2,10.2
				C1997.5,811.8,1992.6,819.2,1982.9,826.4z"/>
			<path class="st1" d="M2036.1,1029.8c1,0,2.1,0,3.2-0.1v-0.3C2038.3,1029.6,2037.2,1029.7,2036.1,1029.8z"/>
			<path class="st1" d="M2339.9,706.5c-6.2,0-14.3,1.4-24.4,4.3c-3.5,1.2-12.3,5.8-26.2,13.9c-14,8.1-33.3,20.1-57.9,35.8
				c-23.6,14.7-48.3,29.1-74.2,42.9c-25.9,13.9-51.9,26.8-78.2,38.7c-8.5,3.5-15.1,7.6-19.7,12.2c-4.6,4.6-7.1,9.3-7.4,14.2
				c-0.8,10.2,3.5,15.3,13.1,15.3h0.7c27.6-10.7,67.2-30.4,118.8-59c25.6-14.6,52.2-30.2,79.9-46.8c27.6-16.7,56.5-34.7,86.6-54.1
				c2.5-1.7,3.8-3.7,4-6C2355.8,711.5,2350.8,707.7,2339.9,706.5z M2033.5,1029.8v0.2c0.9,0,1.7-0.1,2.6-0.2
				C2035.2,1029.8,2034.4,1029.8,2033.5,1029.8z"/>
			<path class="st1" d="M1912,1026c13.1-12.4,23.1-23.6,30.1-33.6c7-10.2,12.6-18.4,16.6-24.6c4-6.2,6.8-10.6,8.3-13.1
				c2,0.2,3.8,1.3,5.3,3.5c1.5,2.2,2.8,5,3.8,8.5c5.2,27.8,11.8,45.6,19.8,53.5c7.4,6.4,20,9.6,37.7,9.6c0.8,0,1.7,0,2.6,0
				c1.1-0.1,2.1-0.2,3.2-0.3c10.8-1.3,20.7-4.3,29.8-9c10.6-5.5,19.1-12.5,25.5-21.1c12.9-17.1,19.1-36.7,18.6-58.8
				c-0.8-21.8-4.1-36.7-9.8-44.7c-3.8-5.2-10.8-7.8-20.8-7.8c-11.2,0-16.1,4.9-14.6,14.8c3.3,12.6,5,24.5,5,35.9
				c0,27.6-12.9,42.4-38.8,44.4c-10.7-0.2-18.1-1.2-22-3c-4.5-2.2-10.1-15.1-16.8-38.9c-6.7-22.3-14.1-33.6-22.1-34.1
				c-8-0.8-14.5,2.3-19.3,9.3c-16.9,29.5-35.5,54.6-55.8,75.5l-10.7,12.8c-4.4,5.3-5,12.7-1.5,18.6v0c5.3,9,17.7,10.7,25.2,3.4
				L1912,1026z"/>
		</g>
	</g>
</g>
</svg>
