<?xml version="1.0" encoding="utf-8"?>
<!-- Generator: Adobe Illustrator 25.0.1, SVG Export Plug-In . SVG Version: 6.00 Build 0)  -->
<svg version="1.1" id="Layer_1" xmlns="http://www.w3.org/2000/svg" xmlns:xlink="http://www.w3.org/1999/xlink" x="0px" y="0px"
	 viewBox="0 0 1700 400" style="enable-background:new 0 0 1700 400;" xml:space="preserve">
<style type="text/css">
	.st0{fill:#F4F4F4;}
	.st1{font-family:'MyriadPro-Regular';}
	.st2{font-size:264.0687px;}
	.st3{fill:#1F00FF;}
	.st4{fill:#D8D8D8;}
	.st5{fill:#00B700;}
	.st6{fill:#FFFFFF;}
	.st7{fill:#FF0000;}
	.st8{font-size:58.9574px;}
	.st9{font-size:142.284px;}
	.st10{font-size:153.9137px;}
</style>
<text transform="matrix(1 0 0 1 1345.6526 191.6496)" class="st0 st1 st2">{}</text>
<path class="st3" d="M1092.6,263.2c-0.8-0.4-1.9-0.6-3.2-0.6c-1.9,0-3.6,0.5-5.1,1.4c0.8,0.5,1.7,1,2.8,1.2c1.1,0.2,2.2,0.4,3.3,0.4
	c0.8,0,1.5-0.1,2.2-0.2c0.7-0.2,1.1-0.3,1.3-0.5C1093.8,264.1,1093.4,263.6,1092.6,263.2z M1092.6,263.2c-0.8-0.4-1.9-0.6-3.2-0.6
	c-1.9,0-3.6,0.5-5.1,1.4c0.8,0.5,1.7,1,2.8,1.2c1.1,0.2,2.2,0.4,3.3,0.4c0.8,0,1.5-0.1,2.2-0.2c0.7-0.2,1.1-0.3,1.3-0.5
	C1093.8,264.1,1093.4,263.6,1092.6,263.2z M1092.6,263.2c-0.8-0.4-1.9-0.6-3.2-0.6c-1.9,0-3.6,0.5-5.1,1.4c0.8,0.5,1.7,1,2.8,1.2
	c1.1,0.2,2.2,0.4,3.3,0.4c0.8,0,1.5-0.1,2.2-0.2c0.7-0.2,1.1-0.3,1.3-0.5C1093.8,264.1,1093.4,263.6,1092.6,263.2z M1537.5,260
	c-0.8-0.6-1.6-0.8-2.5-0.8c-0.3,0-0.7,0.1-1,0.2c-0.4,0.2-0.8,0.4-1,0.8c-0.2,0.4-0.3,0.8-0.3,1.2c0,0.6,0.2,1,0.5,1.5
	c0.3,0.4,0.9,0.7,1.5,0.9c0.2,0,0.5,0.1,0.8,0.1c0.8,0,1.5-0.2,2.2-0.5c0.6-0.3,1-0.8,1-1.4C1538.7,261.1,1538.3,260.5,1537.5,260z
	 M1548.5,262.6c-1.1-0.5-2.4-0.9-3.9-1.2c-0.2,1.2-0.6,2.5-1.2,3.7c1.2,0.3,2.3,0.5,3.5,0.5c1.7,0,3.1-0.5,4-1.5
	C1550.4,263.6,1549.6,263.1,1548.5,262.6z M1548.5,262.6c-1.1-0.5-2.4-0.9-3.9-1.2c-0.2,1.2-0.6,2.5-1.2,3.7
	c1.2,0.3,2.3,0.5,3.5,0.5c1.7,0,3.1-0.5,4-1.5C1550.4,263.6,1549.6,263.1,1548.5,262.6z M1537.5,260c-0.8-0.6-1.6-0.8-2.5-0.8
	c-0.3,0-0.7,0.1-1,0.2c-0.4,0.2-0.8,0.4-1,0.8c-0.2,0.4-0.3,0.8-0.3,1.2c0,0.6,0.2,1,0.5,1.5c0.3,0.4,0.9,0.7,1.5,0.9
	c0.2,0,0.5,0.1,0.8,0.1c0.8,0,1.5-0.2,2.2-0.5c0.6-0.3,1-0.8,1-1.4C1538.7,261.1,1538.3,260.5,1537.5,260z M1092.6,263.2
	c-0.8-0.4-1.9-0.6-3.2-0.6c-1.9,0-3.6,0.5-5.1,1.4c0.8,0.5,1.7,1,2.8,1.2c1.1,0.2,2.2,0.4,3.3,0.4c0.8,0,1.5-0.1,2.2-0.2
	c0.7-0.2,1.1-0.3,1.3-0.5C1093.8,264.1,1093.4,263.6,1092.6,263.2z M1775.8-101.6c-451.1-123.8-1145.9-19.9-1827.2-52
	c-97.1-4.6-24.5,256.3-69.2,353.4c-7.2,15.6-20.9,59-2.3,99.2c19,41.1,61.8,57,83.8,64.8c63.3,22.5,97.6,2.3,190.4-3.3
	c104.5-6.4,95.3,17.1,214.5,12.5c36.4-1.4,86.6-7.4,187-19.3c87.4-10.4,102.1-13.8,135.9-10.8c73.9,6.5,79.8,29.6,147.5,37.1
	c67,7.4,69.8-14.3,172.6-20.8c69-4.4,125.2,1.7,182.5,8c98.7,10.7,100.8,21,149,17.9c83.5-5.5,85-37.1,159.6-43
	c80.6-6.5,105.6,28.3,174.1,31c3.3,0.1,6.8,0.2,10.3,0.2c6.5,0,13.3-0.4,20.6-1c4-0.4,8.2-0.8,12.4-1.4c3.4-0.5,6.9-1,10.5-1.5
	c50-8.1,109.2-28.4,112.6-55.9C1848.7,246,1809.4-92.4,1775.8-101.6z M994.3,269.1c-0.4,2-1.1,3.8-2,5.1c-3.9,1.2-8.2,1.9-12.9,1.9
	c-1.7,0-3.3-0.3-4.8-1c-1.5-0.7-2.8-1.8-3.9-3.5h-0.6c-0.4,1.5-1.1,2.7-2.1,3.5c-1,0.8-2.1,1.2-3.5,1.2c-2.5,0-4.4-1.6-5.6-4.8h-0.6
	c-0.9,1.5-2.1,2.7-3.6,3.5c-1.5,0.8-3.1,1.2-4.8,1.2c-1.7,0-3.2-0.4-4.7-1.2c-1.5-0.8-2.7-2-3.6-3.6h-0.6c-0.9,1.4-2.1,2.5-3.5,3.3
	c-1.4,0.8-3,1.2-4.6,1.2c-2.4,0-4.6-0.2-6.8-0.5s-4-0.8-5.5-1.4c-0.4-1.5-0.7-8.5-1-20.9l-0.4-13l10.3-0.6
	c0.4,6.4,0.6,12.2,0.6,17.6c0,1.6,0,3.8-0.1,6.5c1.1,0.2,2,0.3,3,0.3c4.7,0,7.3-2.3,7.9-6.9h5.3c0.2,2.7,0.6,4.6,1.4,5.7
	c0.8,1.1,1.8,1.6,3.2,1.6c1.9,0,3.3-0.7,4.2-2.1s1.6-3.1,2.1-5.1l5.4,0.8c0,0.3-0.1,0.8-0.1,1.4c0,1.6,0.3,2.8,0.9,3.6
	c0.6,0.8,1.3,1.2,2.3,1.2c2.2,0,3.5-2.4,3.7-7.2h5.4c0,1.8,0.1,3.2,0.3,4.1c0.2,0.9,0.6,1.6,1.2,2.1c0.7,0.5,1.7,0.7,3.2,0.7
	c2.7,0,4.8-0.2,6.2-0.6c-0.4-1.8-1.2-4.2-2.2-7.1l10.3-2.4c0.8,2.4,1.2,5.2,1.2,8.4C995,264.9,994.7,267.1,994.3,269.1z M1097,273.1
	c-1.4,2.2-3.5,3.4-6.1,3.4c-1.7,0-3.5-0.5-5.4-1.4c-1.9-0.9-3.6-2.2-5.3-3.7c-1.4,1.5-3.1,2.7-5,3.5c-1.9,0.8-4,1.2-6.3,1.2
	c-4.5,0-7.6-2.5-9.4-7.4c-1.5,0.5-3.4,1-5.6,1.4c-2.2,0.4-4.4,0.7-6.7,0.9c0,0.6,0.1,1.5,0.1,2.7c0,3-0.3,5.8-0.9,8.6
	c-0.6,2.7-1.7,5.1-3.1,7.1c-6.1,1.8-11.4,2.7-15.9,2.7c-6.2,0-10.8-1.3-13.8-3.8c-3-2.5-4.5-6.2-4.5-10.8c0-4.7,1.5-10.3,4.5-16.9
	l8.9,2.9c-1.6,4.2-2.4,7.6-2.4,10.2c0,2.3,0.6,3.9,1.9,5s3.1,1.6,5.6,1.6c2.5,0,5.7-0.5,9.4-1.5c0-3.2-0.3-8.3-1-15.4
	c-0.1-0.5-0.2-1.3-0.3-2.4l0.7-1c1.6,0.1,3,0.1,4.2,0.1c7,0,13.9-1,20.7-3.1c1,2.8,2.1,4.7,3.3,5.7c1.2,1,2.6,1.5,4.4,1.5
	c1.9,0,3.6-0.3,5-0.9c1.4-0.6,2.6-1.4,3.6-2.3c1-0.9,2.1-2.1,3.4-3.6c1.5-1.8,2.9-3.2,4.1-4.1s2.7-1.4,4.5-1.4c1.9,0,3.5,0.5,5,1.6
	c1.4,1.1,2.6,2.6,3.4,4.6c0.8,1.9,1.2,4.2,1.2,6.6C1099.2,268.1,1098.4,270.9,1097,273.1z M1198.7,269.1c-0.5,2.1-1.1,3.8-2,5.2
	c-1.8,0.5-4.2,1-7.1,1.3c-3,0.4-6.2,0.6-9.7,0.6c-1.6,0-3.1-0.3-4.6-0.9c-1.5-0.6-2.8-1.8-4.1-3.6h-0.5c-0.6,1.5-1.3,2.7-2.3,3.5
	c-1,0.8-2.1,1.3-3.3,1.3c-2.3,0-4.2-1.6-5.7-4.8h-0.6c-1,1.5-2.1,2.7-3.4,3.5c-1.3,0.8-2.7,1.2-4.2,1.2c-0.4,0-0.7,0-0.9-0.1
	c-0.3,5.5-1.6,9.9-4,13.1c-6.1,1.8-11.4,2.7-15.9,2.7c-6,0-10.5-1.3-13.5-3.8c-3-2.5-4.4-6.2-4.4-10.8c0-4.6,1.4-10.2,4.1-16.9
	l8.9,2.9c-1.5,4.2-2.3,7.6-2.3,10.1c0,2.3,0.6,4,1.9,5c1.2,1.1,3.1,1.6,5.6,1.6c2.4,0,5.7-0.5,9.7-1.6c-0.5-5.1-1.7-10.6-3.7-16.4
	l9.3-3.9l0.4,0.2c0.3,2,0.9,3.5,1.8,4.5c0.9,1,1.9,1.5,3.1,1.5c1.4,0,2.7-0.6,3.9-1.9c1.2-1.3,2-3.1,2.4-5.3l5.4,0.8
	c-0.1,0.8-0.1,1.3-0.1,1.5c0,1.4,0.3,2.5,0.9,3.3c0.6,0.9,1.4,1.3,2.2,1.3c1.1,0,1.9-0.6,2.6-1.8c0.7-1.2,1-3,1.2-5.3h5.3
	c0,2.2,0.2,3.8,0.6,4.8c0.4,1,0.9,1.6,1.5,1.8c0.6,0.2,1.5,0.4,2.5,0.4c4.6,0,8-0.3,10.1-0.8c-0.3-1.5-0.8-2.9-1.2-4.3
	c-0.5-1.4-0.8-2.3-0.9-2.6l10.3-2.4c0.8,2.6,1.2,5.3,1.2,8.3C1199.4,264.8,1199.2,267,1198.7,269.1z M1379.5,268.8
	c-0.4,2.1-1.1,4-2.1,5.8c-3,0.9-7.5,1.5-13.7,1.6c-1.9,0-3.8-0.4-5.6-1.2c-1.8-0.8-3.3-1.9-4.3-3.3h-0.6c-2.2,1.8-4.5,3-7,3.6
	s-5,0.9-7.6,0.9c-0.5,0-0.9,0-1.3-0.1c-0.3,5.6-1.7,10-4,13.3c-6,1.8-11.3,2.7-15.9,2.7c-6,0-10.5-1.3-13.4-3.8
	c-2.9-2.5-4.4-6.2-4.4-10.8c0-4.7,1.3-10.3,4-16.9l8.9,2.9c-1.6,4.2-2.4,7.6-2.4,10.1c0,2.3,0.6,4,1.9,5c1.2,1.1,3.1,1.6,5.6,1.6
	c2.3,0,5.5-0.5,9.7-1.5c-0.2-2.8-0.7-5.7-1.4-8.5c-0.7-2.9-1.4-5.5-2.3-7.9l9.3-3.9l0.5,0.2c0.5,1.6,1,2.8,1.5,3.6
	c0.5,0.8,1,1.3,1.6,1.6c0.6,0.3,1.3,0.4,2.2,0.4c3.3,0,6.1-0.5,8.3-1.5c2.2-1,3.9-2.8,5.1-5.4l5.4,0.8c-0.1,0.3-0.1,0.8-0.1,1.4
	c0,1.8,0.5,3,1.4,3.6s2.6,0.9,5,0.9c2.8,0,5.2-0.1,7.1-0.3c-0.1-2.6-0.3-5.6-0.6-9.2c-0.3-3.5-0.7-7.1-1-10.6l-0.4-3.8l10.3-0.6
	c0.6,10,0.9,17.4,0.9,22C1380.1,264.3,1379.9,266.6,1379.5,268.8z M1551.1,274.1c-2.7,1.4-5.5,2.1-8.5,2.1c-2.9,0-6.2-0.7-9.9-2
	c-3.4,1.2-7.2,1.9-11.6,1.9c-2.4,0-4.6-0.2-6.8-0.5c-2.2-0.3-4-0.8-5.5-1.4c-0.4-1.5-0.7-8.5-1-20.9l-0.4-13l10.3-0.6
	c0.4,6.4,0.6,12.2,0.6,17.6c0,1.6,0,3.8-0.1,6.5c1.1,0.2,2,0.3,2.9,0.3l4.7-0.1c0.5-1.8,1.5-3.8,3.1-5.9c-0.3-1.5-0.5-2.9-0.5-4.3
	c0-1.7,0.2-3.7,0.7-5.9l0.6-0.5c1.6,0,4.3,0.5,8,1.3c3.7,0.9,7,1.9,9.9,3.1c5.7,2.3,8.5,5.8,8.5,10.3
	C1556,265.8,1554.4,269.7,1551.1,274.1z M1624.9,248.9l-8.8,2.8c3.8,5.7,5.8,11.1,5.8,16.2c0,1.1-0.1,2.1-0.3,3
	c-0.2,1-0.6,2-1.1,3.3c-3.1,0.7-6.2,1.2-9.5,1.5c-3.3,0.3-7.2,0.5-11.9,0.5h0c-1.7,0-3.4-0.4-5.1-1.2c-1.7-0.8-3.3-2.1-4.8-3.8
	c-0.5,0.8-1.3,2-2.4,3.5c-1.1,0.5-2.6,0.9-4.4,1.3c-1.8,0.3-3.8,0.5-5.9,0.5c-2.6,0-4.9-0.3-6.9-0.8c0.2-3.9,0.9-7.7,2.1-11.4
	c2.2,0.2,4.1,0.3,5.7,0.3c2.5,0,4.9-0.2,7.1-0.7c-2.3-4.1-4.9-8-7.7-11.6l8.9-7.5c1.5,2.2,2.8,4.3,3.8,6.2c1,2,2.1,4.5,3.4,7.6
	c0.7,1.6,1.3,2.8,1.8,3.5c0.5,0.8,1.1,1.3,1.8,1.7c0.7,0.3,1.6,0.5,2.8,0.5h0c5.1,0,9.4-0.2,13-0.5c-2.5-3.4-5.3-6-8.4-8v-10.3
	l20.4-7.6l0.9,0.6V248.9z M1544.5,261.4c-0.2,1.2-0.6,2.5-1.2,3.7c1.2,0.3,2.3,0.5,3.5,0.5c1.7,0,3.1-0.5,4-1.5
	c-0.5-0.5-1.3-1-2.4-1.5C1547.3,262.1,1546,261.7,1544.5,261.4z M1537.5,260c-0.8-0.6-1.6-0.8-2.5-0.8c-0.3,0-0.7,0.1-1,0.2
	c-0.4,0.2-0.8,0.4-1,0.8c-0.2,0.4-0.3,0.8-0.3,1.2c0,0.6,0.2,1,0.5,1.5c0.3,0.4,0.9,0.7,1.5,0.9c0.2,0,0.5,0.1,0.8,0.1
	c0.8,0,1.5-0.2,2.2-0.5c0.6-0.3,1-0.8,1-1.4C1538.7,261.1,1538.3,260.5,1537.5,260z M1092.6,263.2c-0.8-0.4-1.9-0.6-3.2-0.6
	c-1.9,0-3.6,0.5-5.1,1.4c0.8,0.5,1.7,1,2.8,1.2c1.1,0.2,2.2,0.4,3.3,0.4c0.8,0,1.5-0.1,2.2-0.2c0.7-0.2,1.1-0.3,1.3-0.5
	C1093.8,264.1,1093.4,263.6,1092.6,263.2z M1092.6,263.2c-0.8-0.4-1.9-0.6-3.2-0.6c-1.9,0-3.6,0.5-5.1,1.4c0.8,0.5,1.7,1,2.8,1.2
	c1.1,0.2,2.2,0.4,3.3,0.4c0.8,0,1.5-0.1,2.2-0.2c0.7-0.2,1.1-0.3,1.3-0.5C1093.8,264.1,1093.4,263.6,1092.6,263.2z M1092.6,263.2
	c-0.8-0.4-1.9-0.6-3.2-0.6c-1.9,0-3.6,0.5-5.1,1.4c0.8,0.5,1.7,1,2.8,1.2c1.1,0.2,2.2,0.4,3.3,0.4c0.8,0,1.5-0.1,2.2-0.2
	c0.7-0.2,1.1-0.3,1.3-0.5C1093.8,264.1,1093.4,263.6,1092.6,263.2z M1092.6,263.2c-0.8-0.4-1.9-0.6-3.2-0.6c-1.9,0-3.6,0.5-5.1,1.4
	c0.8,0.5,1.7,1,2.8,1.2c1.1,0.2,2.2,0.4,3.3,0.4c0.8,0,1.5-0.1,2.2-0.2c0.7-0.2,1.1-0.3,1.3-0.5
	C1093.8,264.1,1093.4,263.6,1092.6,263.2z M1092.6,263.2c-0.8-0.4-1.9-0.6-3.2-0.6c-1.9,0-3.6,0.5-5.1,1.4c0.8,0.5,1.7,1,2.8,1.2
	c1.1,0.2,2.2,0.4,3.3,0.4c0.8,0,1.5-0.1,2.2-0.2c0.7-0.2,1.1-0.3,1.3-0.5C1093.8,264.1,1093.4,263.6,1092.6,263.2z"/>
<g>
	<path class="st4" d="M743.7,281.7c-0.5,0.7-1.1,1.5-1.6,2.2l-4.1-6.3l-22.9-35.2l-0.8-1.2l2.2-1.4l0.8,1.2l0.7,1.1l2.7,4.1l2.7,4.1
		l2.7,4.1l13.8,21.2L743.7,281.7z"/>
	<path class="st5" d="M740.3,233.4l-19.7,12.8l-2.7-4.1l18.7-12.2c0.5-0.4,1.3-0.2,1.6,0.3L740.3,233.4z"/>
	
		<rect x="720.1" y="239.4" transform="matrix(0.838 -0.5457 0.5457 0.838 -13.4204 438.5294)" class="st6" width="23.5" height="4.9"/>
	<path class="st7" d="M744.6,242.2l-18.7,12.2l-2.7-4.1l19.7-12.8l2,3.1C745.3,241.1,745.2,241.9,744.6,242.2z"/>
	<circle class="st4" cx="715" cy="240" r="2.4"/>
</g>
<g>
	<path class="st4" d="M36.5,341c-0.2-0.3-0.4-0.4-0.6-0.4c-0.2,0-0.5,0.2-0.8,0.5c-0.3,0.4-0.5,0.8-0.5,1.2c0,0.6,0.3,1,0.9,1
		c0.3,0,0.6-0.1,0.8-0.4c0.2-0.3,0.3-0.6,0.4-1.1C36.8,341.5,36.7,341.2,36.5,341z M49.6,328.8c-0.1,0-0.1,0-0.2,0
		c-0.1,0-0.2,0-0.2,0c-0.1,0-0.3,0.1-0.5,0.2c-0.2,0.1-0.5,0.3-0.8,0.6c-2,1.5-3.7,2.7-5.4,3.6c-1.6,0.9-3,1.6-4.2,2
		c-1,0.3-2.1,0.6-3.1,0.8c-1,0.2-2,0.3-3,0.3c-0.5,0-0.9,0-1.4,0c-0.5,0-0.9-0.1-1.3-0.2c-3.1-0.5-5.4-1.2-6.8-2.2
		c-0.2-0.1-0.4-0.2-0.6-0.2c-0.5,0-0.7,0.3-0.6,0.8c0,0.2,0.1,0.4,0.2,0.6s0.2,0.4,0.4,0.6c0.3,0.4,0.8,0.7,1.4,1
		c0.6,0.3,1.3,0.6,2.1,0.9c2,0.7,4.1,1,6.4,1c0.3,0,0.5,0,0.8,0c0.3,0,0.6,0,0.8,0c3.1-0.3,6.4-1.4,9.8-3.4c0.3-0.2,1-0.7,2.1-1.4
		c1.1-0.7,2.5-1.7,4.3-2.9c0.6-0.4,0.8-0.8,0.8-1.2C50.6,329.1,50.2,328.8,49.6,328.8z"/>
	<path class="st4" d="M31.9,342.7c-0.3-0.3-0.9-0.6-1.5-0.8c-0.7-0.2-1.5-0.5-2.5-0.9c-1-0.3-2.2-0.8-3.5-1.3
		c-0.3,0.2-0.5,0.4-0.5,0.6c0,0.2,0.1,0.4,0.2,0.6c0.2,0.2,0.4,0.5,0.8,0.8c-0.5,0.3-1,0.6-1.4,1c-0.4,0.4-0.8,0.7-1,1.1
		c-0.3,0.4-0.5,0.9-0.5,1.4c0,0.4,0.1,0.8,0.3,1.1c0.2,0.3,0.4,0.6,0.8,0.8c-0.2,0.1-0.5,0.2-0.9,0.2c-0.3,0-0.7,0-1.1,0v0
		c-1.6,0-2.4-0.7-2.4-1.9c0-0.3,0.1-1,0.3-1.8c0.1-0.4,0.3-0.9,0.5-1.4c0.2-0.5,0.4-0.9,0.7-1.4c0.5-0.9,0.8-1.5,0.8-1.6
		c0-0.3-0.2-0.5-0.5-0.5c-0.4,0-1,0.5-1.7,1.5c-0.7,1-1.2,2-1.5,3.1c-0.3,1.1-0.5,2-0.5,2.7c0,0.9,0.2,1.6,0.6,2.2
		c0.4,0.6,0.9,1,1.5,1.2c0.6,0.2,1.3,0.3,2,0.4h0.3c0.2,0,0.3,0,0.5,0c0.3,0,0.7-0.1,1.1-0.3c0.5-0.2,1.1-0.4,1.6-0.7
		c0.5-0.3,1-0.6,1.4-1c0.3,0,0.7,0,1,0c0.3,0,0.7,0,0.9-0.1c0.4-0.1,0.7-0.1,1.1-0.2c0.3-0.1,0.7-0.2,1-0.4c0.4-0.2,0.8-0.5,1.1-0.8
		c0.4-0.3,0.7-0.7,1-1.2c0.2-0.2,0.4-0.5,0.5-0.7c0.1-0.2,0.1-0.4,0.1-0.6C32.5,343.3,32.3,343,31.9,342.7z M26.7,343.3
		c0,0.1,0,0.2-0.1,0.3h0c-0.1,0.2-0.2,0.4-0.3,0.6c-0.1,0.1-0.2,0.2-0.2,0.3c-0.1,0.2-0.3,0.4-0.5,0.7c-0.1,0.1-0.2,0.3-0.4,0.4
		c-0.2,0.2-0.6,0.3-0.9,0.2c-0.2-0.1-0.3-0.2-0.3-0.5c0-0.3,0.2-0.7,0.5-1.2c0.4-0.5,0.7-0.8,1-1c0.1-0.1,0.3-0.2,0.4-0.2
		c0.1,0,0.2-0.1,0.4-0.1c0.3,0,0.4,0.1,0.4,0.4C26.8,343.2,26.7,343.3,26.7,343.3z M29.3,345c-0.5,0.4-1.1,0.7-1.9,0.8
		c0-0.1,0.1-0.1,0.2-0.2c0.1-0.1,0.2-0.2,0.3-0.4c0.4-0.5,0.7-1,0.8-1.5c0.2-0.5,0.7-0.7,1.1-0.3c0.2,0.1,0.2,0.3,0.2,0.5
		C30.1,344.3,29.8,344.7,29.3,345z"/>
	<path class="st4" d="M32.1,355.5h0.2v0C32.2,355.5,32.1,355.5,32.1,355.5z"/>
	<path class="st4" d="M31.9,355.5L31.9,355.5c0,0,0.1,0,0.1,0H31.9z M47.7,338.9c-0.3,0-0.7,0.1-1.3,0.2c-0.2,0-0.6,0.3-1.4,0.7
		c-0.7,0.4-1.7,1-3,1.8c-1.2,0.8-2.5,1.5-3.8,2.2c-1.3,0.7-2.7,1.4-4,2c-0.4,0.2-0.8,0.4-1,0.6c-0.2,0.2-0.4,0.5-0.4,0.7
		c0,0.5,0.2,0.8,0.7,0.8h0c1.4-0.6,3.4-1.6,6.1-3c1.3-0.8,2.7-1.5,4.1-2.4c1.4-0.9,2.9-1.8,4.5-2.8c0.1-0.1,0.2-0.2,0.2-0.3
		C48.5,339.1,48.3,338.9,47.7,338.9z"/>
	<path class="st4" d="M25.7,355.3c0.7-0.6,1.2-1.2,1.6-1.7c0.4-0.5,0.6-0.9,0.9-1.3c0.2-0.3,0.3-0.5,0.4-0.7c0.1,0,0.2,0.1,0.3,0.2
		c0.1,0.1,0.1,0.3,0.2,0.4c0.3,1.4,0.6,2.3,1,2.8c0.4,0.3,1,0.5,1.9,0.5c0,0,0.1,0,0.1,0c0.1,0,0.1,0,0.2,0c0.6-0.1,1.1-0.2,1.5-0.5
		c0.5-0.3,1-0.6,1.3-1.1c0.7-0.9,1-1.9,1-3c0-1.1-0.2-1.9-0.5-2.3c-0.2-0.3-0.6-0.4-1.1-0.4c-0.6,0-0.8,0.3-0.8,0.8
		c0.2,0.6,0.3,1.3,0.3,1.8c0,1.4-0.7,2.2-2,2.3c-0.6,0-0.9-0.1-1.1-0.2c-0.2-0.1-0.5-0.8-0.9-2c-0.3-1.1-0.7-1.7-1.1-1.8
		c-0.4,0-0.7,0.1-1,0.5c-0.9,1.5-1.8,2.8-2.9,3.9l-0.5,0.7c-0.2,0.3-0.3,0.7-0.1,1l0,0C24.6,355.7,25.2,355.7,25.7,355.3L25.7,355.3
		z"/>
</g>
<text transform="matrix(1 0 0 1 -7.761 106.7599)" class="st0 st1 st8">{}</text>
<g>
	<path class="st0" d="M1694,294.6c-13.1,0-22.3,6-22.3,20.2c0,4.3,0.6,8.5,1.2,12.8c0.6,4.3,1.2,8.6,1.2,12.9
		c0,5.4-1.5,11.4-12.5,11.4v7.8c10.9,0,12.5,6.6,12.5,11.4c0,0.6,0,1.3,0,1.9c3.3,0.1,6.8,0.2,10.3,0.2c0-0.2,0-0.4,0-0.5
		c0.2-9.8-4.1-15.1-11.1-16.8v-0.3c6.9-1.8,11.2-6.8,11.1-16.6c0-4.2-0.5-7.8-1.1-11.7c-0.6-3.7-1.1-7.4-1.1-10.9
		c0-8.3,3.1-13.2,12.2-13.2h2.8v-8.5H1694z"/>
	<path class="st0" d="M1727.8,340.4c0-4.3,0.6-8.6,1.2-12.9c0.6-4.3,1.2-8.5,1.2-12.8c0-14.2-9.4-20.2-22.5-20.2h-3.1v8.5h2.8
		c8.9,0.2,12.2,4.9,12.2,13.2c0,3.5-0.6,7.2-1.1,10.9c-0.6,3.8-1.2,7.5-1.2,11.7c0,9.9,4.3,14.8,11.1,16.6v0.3
		c-6.3,1.6-10.5,6.2-11,14.9c3.4-0.5,6.9-1,10.5-1.5c0.5-4.5,2.8-9.5,12.4-9.5v-7.8C1729.4,351.8,1727.8,345.8,1727.8,340.4z"/>
</g>
<text transform="matrix(1 0 0 1 32.4001 251.1852)" class="st0 st1 st9">{}</text>
<g>
	<g>
		<path class="st6" d="M1097.9,212.9c11.3,9.3,9.4,25.6,8,38.5c-0.5,4.7-1,9.3-0.9,14c0,1.4,2,1.7,2.5,0.3
			c2.6-8.1,2.5-16.7,5.1-24.8c1.3-4,3.5-7.6,6.7-10.4c3.2-2.8,7-4.8,11-6.1c5.3-1.8,10.9-2.6,16.4-3.4c1.6-0.2,0.9-2.6-0.7-2.4
			c-9.4,1.3-19.2,2.9-26.9,8.8c-3.5,2.7-6.2,6.1-7.9,10.1c-1.7,4-2.6,8.3-3.2,12.6c-0.8,5-1.4,10-2.9,14.8c0.8,0.1,1.6,0.2,2.5,0.3
			c-0.3-15.2,5.3-31-1.3-45.6c-1.5-3.3-3.7-6.4-6.6-8.7C1098.5,210.1,1096.7,211.9,1097.9,212.9L1097.9,212.9z"/>
	</g>
</g>
<g>
	<path class="st6" d="M814.1,262.6c0,2.3-0.2,4.4-0.7,6.5c-0.5,2.1-1.1,3.8-2,5.2c-3.1,1.5-5.9,2.2-8.3,2.2c-3.7,0-6.8-1.6-9.2-4.9
		h-0.6c-0.7,1.5-1.9,2.8-3.6,3.6c-1.6,0.9-3.3,1.3-5,1.3c-1.5,0-2.7-0.3-3.8-1c-1.1-0.6-2-1.4-2.7-2.3c-0.7-0.9-1.5-2.1-2.4-3.6
		c-1-1.7-1.9-3-2.7-3.8c-0.8-0.8-1.7-1.2-2.9-1.2c-1.5,0-3,0.9-4.6,2.7c2.8,1.2,4.8,2.8,5.8,4.8c0.3,0.5,0.4,1.4,0.4,2.8
		c0,1.4-0.2,3-0.6,4.8c-0.4,1.8-1,3.6-1.9,5.4c-2.8,2.2-6,4-9.6,5.5c-3.6,1.5-7.3,2.2-10.8,2.2c-4.4,0-8-1.2-10.8-3.6
		c-2.8-2.4-4.1-6-4.1-10.6c0-5.1,1.3-11,4-17.8l8.9,2.9c-1.6,5-2.4,8.8-2.4,11.4c0,2.1,0.5,3.6,1.6,4.7c1,1.1,2.5,1.6,4.5,1.6
		c3,0,6.9-1.2,11.7-3.7c-0.3-0.2-1.4-0.8-3.2-1.9c-1.8-1.1-3.2-2.2-4.2-3.4c-0.9-1.2-1.4-2.4-1.4-3.7c0-1.7,1-3.8,2.9-6.3
		s4.3-4.6,7-6.4c2.8-1.8,5.3-2.7,7.7-2.7c1.8,0,3.2,0.5,4.3,1.5c1,1,2.2,2.5,3.3,4.5c1.1,1.8,2,3.1,2.8,3.9c0.8,0.9,1.9,1.3,3.2,1.3
		c1.8,0,3.3-0.5,4.7-1.5c1.3-1,2.2-2.9,2.8-5.7l5.3,0.8c0,0.3-0.1,0.8-0.1,1.5c0,1.9,0.4,3.2,1.1,4c0.7,0.8,1.8,1.2,3.1,1.2
		c0.7,0,1.8-0.2,3.3-0.5c-0.3-1.6-0.7-3.2-1.3-4.8c-0.6-1.6-0.9-2.6-1-3l10.3-2.4C813.7,256.6,814.1,259.4,814.1,262.6z"/>
	<path class="st6" d="M815.7,289.7c-2.1-1.3-3.5-2.5-4.4-3.7c2.1-3,4.1-6.7,6-10.8c2.1-4.3,3.7-8.6,5.1-13l9,3
		c-0.7,4.2-2.1,8.9-4,13.9c-1.2,3.1-2.4,5.9-3.7,8.4c-1.3,2.5-2.2,4.1-2.7,5C819.4,292,817.7,291,815.7,289.7z"/>
	<path class="st6" d="M863.5,262.6c0,2.3-0.2,4.5-0.7,6.5c-0.5,2.1-1.1,3.8-2,5.1c-1.7,0.6-3.7,1.1-5.9,1.4
		c-2.2,0.3-4.5,0.5-6.9,0.5c-2.3,0-4.4-0.2-6.5-0.5c-2.1-0.3-3.9-0.8-5.4-1.4c-0.4-1.5-0.7-8.5-1-20.9l-0.4-13l10.3-0.6
		c0.4,6.4,0.6,12.2,0.6,17.5c0,1.6,0,3.8-0.1,6.5c1.5,0.2,2.9,0.3,4.2,0.3c1.7,0,3.2-0.2,4.4-0.5c-0.4-1.6-1.1-4-2.2-7.1l10.3-2.4
		C863.1,256.6,863.5,259.4,863.5,262.6z M858.1,280.8c1.5,1,2.3,1.9,2.4,2.5c0.1,0.6-0.4,1.7-1.4,3.1c-1,1.5-1.9,2.4-2.6,2.9
		c-0.7-0.3-1.7-0.9-3-1.7c-1.2-0.8-2.2-1.6-2.9-2.3c-0.4,0.8-1,1.6-1.7,2.3c-0.7,0.8-1.2,1.3-1.7,1.6c-0.8-0.3-1.9-1-3.2-1.9
		s-2.3-1.7-2.9-2.4c0.3-0.9,0.9-2.1,1.9-3.6c1-1.5,1.9-2.2,2.6-2.2c0.6,0,1.6,0.5,3,1.4c1.4,0.9,2.2,1.7,2.6,2.4
		c0.6-1,1.2-1.9,1.8-2.6c0.7-0.8,1.3-1.2,1.8-1.2C855.6,279.2,856.7,279.7,858.1,280.8z M853,289c0.9,0.5,1.6,1,2.4,1.7
		s1.1,1.2,1.2,1.6c0.1,0.6-0.4,1.5-1.3,3c-1,1.4-1.8,2.3-2.5,2.8c-0.8-0.3-1.8-1-3.1-1.8c-1.3-0.9-2.2-1.6-2.7-2.2
		c0.1-0.8,0.7-1.9,1.6-3.3c1-1.4,1.8-2.2,2.5-2.3C851.5,288.3,852.2,288.5,853,289z"/>
	<path class="st6" d="M915.4,269.6c0,6.3-1.4,11.4-4.1,15.2c-6,1.8-11.3,2.7-15.9,2.7c-6,0-10.5-1.3-13.4-3.8
		c-2.9-2.5-4.4-6.1-4.4-10.8c0-4.6,1.3-10.2,4-16.9l8.9,2.9c-1.6,4.4-2.4,7.8-2.4,10.2c0,2.2,0.6,3.8,1.8,4.9
		c1.2,1.1,3.1,1.6,5.7,1.6c1.1,0,2.5-0.1,4.1-0.3c1.6-0.2,3.3-0.5,5-1c-0.1-3-0.3-5.8-0.6-8.2c-0.3-2.4-0.7-5.4-1.1-9.1l10.4-2.2
		C914.8,260.4,915.4,265.3,915.4,269.6z M894.3,250.7c-1.5-1-2.5-1.9-3-2.6c0.1-0.6,0.5-1.3,1-2.3s1.1-1.8,1.8-2.6
		c0.7-0.8,1.3-1.2,1.8-1.3c0.5-0.1,1.2,0.1,2.2,0.6s1.9,1.1,2.7,1.9c0.8,0.8,1.3,1.3,1.4,1.8c0.2,0.6-0.3,1.8-1.4,3.4
		c-1.1,1.6-2.1,2.7-2.9,3.2C896.9,252.4,895.8,251.7,894.3,250.7z"/>
	<path class="st6" d="M995,262.6c0,2.3-0.2,4.5-0.7,6.6c-0.4,2-1.1,3.8-2,5.1c-3.9,1.2-8.2,1.9-12.9,1.9c-1.7,0-3.3-0.3-4.8-1
		c-1.5-0.7-2.8-1.8-3.9-3.5h-0.6c-0.4,1.5-1.1,2.7-2.1,3.5c-1,0.8-2.1,1.2-3.5,1.2c-2.5,0-4.4-1.6-5.6-4.8h-0.6
		c-0.9,1.5-2.1,2.7-3.6,3.5c-1.5,0.8-3.1,1.2-4.8,1.2c-1.7,0-3.2-0.4-4.7-1.2c-1.5-0.8-2.7-2-3.6-3.6h-0.6c-0.9,1.4-2.1,2.5-3.5,3.3
		c-1.4,0.8-3,1.2-4.6,1.2c-2.4,0-4.6-0.2-6.8-0.5s-4-0.8-5.5-1.4c-0.4-1.5-0.7-8.5-1-20.9l-0.4-13l10.3-0.6
		c0.4,6.4,0.6,12.2,0.6,17.6c0,1.6,0,3.8-0.1,6.5c1.1,0.2,2,0.3,3,0.3c4.7,0,7.3-2.3,7.9-6.9h5.3c0.2,2.7,0.6,4.6,1.4,5.7
		c0.8,1.1,1.8,1.6,3.2,1.6c1.9,0,3.3-0.7,4.2-2.1s1.6-3.1,2.1-5.1l5.4,0.8c0,0.3-0.1,0.8-0.1,1.4c0,1.6,0.3,2.8,0.9,3.6
		c0.6,0.8,1.3,1.2,2.3,1.2c2.2,0,3.5-2.4,3.7-7.2h5.4c0,1.8,0.1,3.2,0.3,4.1c0.2,0.9,0.6,1.6,1.2,2.1c0.7,0.5,1.7,0.7,3.2,0.7
		c2.7,0,4.8-0.2,6.2-0.6c-0.4-1.8-1.2-4.2-2.2-7.1l10.3-2.4C994.6,256.6,995,259.4,995,262.6z"/>
	<path class="st6" d="M959.1,235.5c-1.4-1-2.4-1.5-3.1-1.5c-0.5,0-1,0.3-1.6,1c-0.6,0.7-1.2,1.5-1.7,2.4c-0.5,0.9-0.8,1.6-1,2.1
		c0.5,0.6,1.5,1.4,2.8,2.2c1.3,0.9,2.3,1.5,3.1,1.9c0.7-0.5,1.5-1.4,2.5-2.8c1-1.4,1.4-2.4,1.4-3
		C961.3,237.2,960.5,236.5,959.1,235.5z M964.6,244.4c-1.4-1-2.5-1.6-3.2-1.6c-0.5,0-1.1,0.4-1.8,1.1c-0.7,0.8-1.3,1.6-1.9,2.7
		c-0.3-0.7-1.2-1.5-2.7-2.5c-1.4-1-2.5-1.4-3-1.3c-0.7,0.1-1.5,0.9-2.5,2.3c-1,1.4-1.6,2.6-1.8,3.4c0.5,0.6,1.5,1.4,2.9,2.4
		c1.3,1,2.4,1.6,3.2,1.9c0.4-0.3,1-0.9,1.7-1.6c0.7-0.8,1.2-1.6,1.7-2.3c0.7,0.7,1.6,1.4,2.9,2.3c1.2,0.8,2.2,1.4,3,1.7
		c0.7-0.5,1.6-1.4,2.6-2.9c1-1.5,1.5-2.5,1.4-3.1C966.8,246.3,966,245.4,964.6,244.4z"/>
	<path class="st6" d="M991.6,244.3c-0.1-0.4-0.5-1-1.4-1.8c-0.8-0.8-1.7-1.4-2.7-1.9c-1-0.5-1.7-0.7-2.1-0.6
		c-0.5,0.1-1.1,0.5-1.8,1.3c-0.7,0.8-1.3,1.7-1.8,2.6c-0.5,1-0.9,1.7-1,2.3c0.6,0.7,1.6,1.6,3,2.6c1.5,1,2.6,1.7,3.5,2
		c0.8-0.5,1.7-1.6,2.9-3.2C991.2,246.1,991.7,245,991.6,244.3z"/>
	<path class="st6" d="M1054.7,244.2c-1.5-1-2.5-1.6-3.2-1.6c-0.5,0-1.1,0.4-1.7,1.1c-0.6,0.8-1.3,1.7-1.9,2.7
		c-0.3-0.6-1.1-1.4-2.5-2.4c-1.4-1-2.4-1.4-3.1-1.4c-0.7,0-1.5,0.8-2.6,2.2c-1,1.5-1.7,2.7-1.9,3.6c0.6,0.6,1.5,1.4,2.8,2.3
		c1.3,0.9,2.4,1.6,3.3,2c0.4-0.3,1-0.9,1.7-1.7c0.7-0.8,1.2-1.6,1.7-2.4c0.6,0.7,1.5,1.4,2.8,2.3c1.2,0.8,2.3,1.4,3.1,1.8
		c0.7-0.5,1.6-1.5,2.6-3c1-1.5,1.5-2.5,1.4-3.2C1057,246.1,1056.2,245.2,1054.7,244.2z M1032,250.7c-0.1-0.4-0.5-1-1.4-1.8
		c-0.8-0.8-1.7-1.4-2.7-1.9c-1-0.5-1.7-0.7-2.1-0.6c-0.5,0.1-1.1,0.5-1.8,1.3c-0.7,0.8-1.3,1.7-1.8,2.6c-0.5,1-0.9,1.7-1,2.3
		c0.6,0.7,1.6,1.6,3,2.6c1.5,1,2.6,1.7,3.5,2c0.8-0.5,1.7-1.6,2.9-3.2C1031.7,252.5,1032.2,251.3,1032,250.7z"/>
	<path class="st6" d="M1098,258.1c-0.8-2-1.9-3.5-3.4-4.6c-1.5-1.1-3.1-1.6-5-1.6c-1.8,0-3.3,0.5-4.5,1.4s-2.6,2.3-4.1,4.1
		c-1.3,1.5-2.4,2.7-3.4,3.6c-1,0.9-2.2,1.7-3.6,2.3c-1.4,0.6-3.1,0.9-5,0.9c-1.8,0-3.3-0.5-4.4-1.5c-1.1-1-2.2-2.9-3.3-5.7
		c-6.8,2-13.7,3.1-20.7,3.1c-1.2,0-2.6,0-4.2-0.1l-0.7,1c0.1,1.1,0.2,1.9,0.3,2.4c0.7,7.1,1,12.2,1,15.4c-3.8,1-6.9,1.5-9.4,1.5
		c-2.5,0-4.3-0.5-5.6-1.6s-1.9-2.7-1.9-5c0-2.6,0.8-6,2.4-10.2l-8.9-2.9c-3,6.6-4.5,12.2-4.5,16.9c0,4.7,1.5,8.3,4.5,10.8
		c3,2.5,7.6,3.8,13.8,3.8c4.5,0,9.8-0.9,15.9-2.7c1.4-2,2.5-4.4,3.1-7.1c0.6-2.7,0.9-5.6,0.9-8.6c0-1.2,0-2.1-0.1-2.7
		c2.3-0.2,4.5-0.5,6.7-0.9c2.2-0.4,4-0.9,5.6-1.4c1.8,4.9,4.9,7.4,9.4,7.4c2.3,0,4.4-0.4,6.3-1.2c1.9-0.8,3.6-2,5-3.5
		c1.7,1.5,3.4,2.8,5.3,3.7c1.9,0.9,3.6,1.4,5.4,1.4c2.6,0,4.6-1.1,6.1-3.4c1.5-2.2,2.2-5.1,2.2-8.4
		C1099.2,262.2,1098.8,260,1098,258.1z M1092.5,265.2c-0.7,0.1-1.4,0.2-2.2,0.2c-1.1,0-2.2-0.1-3.3-0.4c-1.1-0.3-2.1-0.7-2.8-1.2
		c1.5-0.9,3.2-1.4,5.1-1.4c1.4,0,2.4,0.2,3.2,0.6c0.8,0.4,1.2,0.9,1.2,1.5C1093.7,264.9,1093.2,265.1,1092.5,265.2z"/>
	<path class="st6" d="M1199.4,262.5c0,2.3-0.2,4.5-0.7,6.6c-0.5,2.1-1.1,3.8-2,5.2c-1.8,0.5-4.2,1-7.1,1.3c-3,0.4-6.2,0.6-9.7,0.6
		c-1.6,0-3.1-0.3-4.6-0.9c-1.5-0.6-2.8-1.8-4.1-3.6h-0.5c-0.6,1.5-1.3,2.7-2.3,3.5c-1,0.8-2.1,1.3-3.3,1.3c-2.3,0-4.2-1.6-5.7-4.8
		h-0.6c-1,1.5-2.1,2.7-3.4,3.5c-1.3,0.8-2.7,1.2-4.2,1.2c-0.4,0-0.7,0-0.9-0.1c-0.3,5.5-1.6,9.9-4,13.1c-6.1,1.8-11.4,2.7-15.9,2.7
		c-6,0-10.5-1.3-13.5-3.8c-3-2.5-4.4-6.2-4.4-10.8c0-4.6,1.4-10.2,4.1-16.9l8.9,2.9c-1.5,4.2-2.3,7.6-2.3,10.1c0,2.3,0.6,4,1.9,5
		c1.2,1.1,3.1,1.6,5.6,1.6c2.4,0,5.7-0.5,9.7-1.6c-0.5-5.1-1.7-10.6-3.7-16.4l9.3-3.9l0.4,0.2c0.3,2,0.9,3.5,1.8,4.5
		c0.9,1,1.9,1.5,3.1,1.5c1.4,0,2.7-0.6,3.9-1.9c1.2-1.3,2-3.1,2.4-5.3l5.4,0.8c-0.1,0.8-0.1,1.3-0.1,1.5c0,1.4,0.3,2.5,0.9,3.3
		c0.6,0.9,1.4,1.3,2.2,1.3c1.1,0,1.9-0.6,2.6-1.8c0.7-1.2,1-3,1.2-5.3h5.3c0,2.2,0.2,3.8,0.6,4.8c0.4,1,0.9,1.6,1.5,1.8
		c0.6,0.2,1.5,0.4,2.5,0.4c4.6,0,8-0.3,10.1-0.8c-0.3-1.5-0.8-2.9-1.2-4.3c-0.5-1.4-0.8-2.3-0.9-2.6l10.3-2.4
		C1199,256.7,1199.4,259.5,1199.4,262.5z"/>
	<path class="st6" d="M1195.6,282.2c-1.5-1-2.6-1.6-3.2-1.6c-0.5,0-1.1,0.4-1.7,1.1c-0.6,0.7-1.3,1.6-1.9,2.7
		c-0.3-0.6-1.1-1.4-2.5-2.4c-1.4-1-2.4-1.5-3.1-1.5c-0.7,0-1.5,0.8-2.6,2.2c-1,1.5-1.7,2.7-1.9,3.6c0.6,0.7,1.5,1.4,2.8,2.4
		c1.3,0.9,2.4,1.6,3.3,2c0.4-0.3,1-0.9,1.7-1.7c0.7-0.8,1.2-1.6,1.7-2.4c0.6,0.7,1.5,1.4,2.8,2.3c1.2,0.8,2.3,1.4,3.1,1.8
		c0.7-0.5,1.6-1.5,2.6-3c1-1.5,1.5-2.5,1.4-3.1C1197.9,284.1,1197.1,283.2,1195.6,282.2z"/>
	<path class="st6" d="M1219.6,253.9c1.5,1.5,2.5,3.3,3.2,5.6c0.7,2.3,1,4.5,0.8,6.7c-0.2,4.7-1.5,9.3-3.8,14s-4.8,8.6-7.5,11.8
		c-1.4-0.5-3.1-1.4-5.1-2.8c-2-1.3-3.6-2.6-4.6-3.8c0.1-0.2,0.3-0.3,0.5-0.5c0.2-0.2,0.4-0.4,0.5-0.6c3.6-3.7,6.3-6.9,8.1-9.6
		c-2.5-0.6-4.6-1.6-6.4-3.2c-1.7-1.6-2.6-3.5-2.6-5.9c0-2.1,0.6-4.2,1.7-6.5s2.6-4,4.4-5.5c1.8-1.4,3.5-2.2,5.3-2.2
		C1216.3,251.7,1218.1,252.4,1219.6,253.9z M1215.9,264.6c0.9,0,1.6,0,2.1-0.1c-0.7-0.9-1.6-1.6-2.7-2.2c-1.1-0.6-2.2-0.9-3.2-0.9
		c-0.8,0-1.4,0.2-1.9,0.5c-0.5,0.3-0.7,0.8-0.7,1.4c0.3,0.5,1.3,0.8,3.3,1.1C1213.7,264.5,1214.8,264.6,1215.9,264.6z"/>
	<path class="st6" d="M1285.5,262.6c0,2.3-0.2,4.4-0.7,6.5c-0.5,2.1-1.1,3.8-2,5.1c-3.1,1.5-5.9,2.2-8.4,2.2c-3.8,0-6.9-1.6-9.3-4.9
		h-0.5c-0.6,1.2-1.7,2.3-3.1,3.3c-1.4,0.9-3,1.4-4.8,1.4c-1.3,0-2.7-0.6-4.1-1.8s-2.6-3-3.4-5.4c-1.8,0.6-3.3,1.1-4.7,1.4
		c-1.4,0.3-2.8,0.5-4.2,0.5c-0.9,3.1-2,6.2-3.3,9.4c-1.3,3.2-2.5,5.9-3.7,8.2c-1.2,2.3-1.9,3.6-2.2,3.9c-1.5-0.6-3.3-1.5-5.3-2.9
		c-2-1.3-3.5-2.6-4.5-3.7c3.1-4.6,5.6-8.9,7.6-12.9s3.7-8.3,5.2-13.1c2.9,0,6-0.2,9.1-0.7c3.2-0.5,6-1.3,8.5-2.3
		c0.8,2.5,1.6,4.3,2.4,5.6c0.8,1.2,1.8,1.9,3,1.9c1.5,0,2.9-0.6,4-1.9c1.1-1.3,1.9-3,2.3-5.1l5.4,0.8c0,0.4-0.1,0.9-0.1,1.5
		c0,3.3,1.4,5,4.3,5c0.9,0,2-0.1,3.2-0.4c-0.3-1.6-0.7-3.2-1.3-4.8c-0.6-1.6-0.9-2.6-1-3l10.3-2.4
		C1285.1,256.6,1285.5,259.4,1285.5,262.6z"/>
	<path class="st6" d="M1323.1,250.7c-0.1-0.4-0.5-1-1.4-1.8c-0.8-0.8-1.7-1.4-2.7-1.9c-1-0.5-1.7-0.7-2.1-0.6
		c-0.5,0.1-1.1,0.5-1.8,1.3c-0.7,0.8-1.3,1.7-1.8,2.6c-0.5,1-0.9,1.7-1,2.3c0.6,0.7,1.6,1.6,3,2.6c1.4,1,2.6,1.7,3.5,2
		c0.8-0.5,1.7-1.6,2.9-3.2C1322.7,252.5,1323.2,251.3,1323.1,250.7z"/>
	<path class="st6" d="M1380.1,261.8c0,2.5-0.2,4.8-0.6,6.9c-0.4,2.1-1.1,4-2.1,5.8c-3,0.9-7.5,1.5-13.7,1.6c-1.9,0-3.8-0.4-5.6-1.2
		c-1.8-0.8-3.3-1.9-4.3-3.3h-0.6c-2.2,1.8-4.5,3-7,3.6s-5,0.9-7.6,0.9c-0.5,0-0.9,0-1.3-0.1c-0.3,5.6-1.7,10-4,13.3
		c-6,1.8-11.3,2.7-15.9,2.7c-6,0-10.5-1.3-13.4-3.8c-2.9-2.5-4.4-6.2-4.4-10.8c0-4.7,1.3-10.3,4-16.9l8.9,2.9
		c-1.6,4.2-2.4,7.6-2.4,10.1c0,2.3,0.6,4,1.9,5c1.2,1.1,3.1,1.6,5.6,1.6c2.3,0,5.5-0.5,9.7-1.5c-0.2-2.8-0.7-5.7-1.4-8.5
		c-0.7-2.9-1.4-5.5-2.3-7.9l9.3-3.9l0.5,0.2c0.5,1.6,1,2.8,1.5,3.6c0.5,0.8,1,1.3,1.6,1.6c0.6,0.3,1.3,0.4,2.2,0.4
		c3.3,0,6.1-0.5,8.3-1.5c2.2-1,3.9-2.8,5.1-5.4l5.4,0.8c-0.1,0.3-0.1,0.8-0.1,1.4c0,1.8,0.5,3,1.4,3.6s2.6,0.9,5,0.9
		c2.8,0,5.2-0.1,7.1-0.3c-0.1-2.6-0.3-5.6-0.6-9.2c-0.3-3.5-0.7-7.1-1-10.6l-0.4-3.8l10.3-0.6
		C1379.8,249.8,1380.1,257.1,1380.1,261.8z"/>
	<path class="st6" d="M1355.6,282.2c-1.5-1-2.6-1.6-3.2-1.6c-0.5,0-1.1,0.4-1.7,1.1c-0.6,0.7-1.3,1.6-1.9,2.7
		c-0.3-0.6-1.1-1.4-2.5-2.4c-1.4-1-2.4-1.5-3.1-1.5c-0.7,0-1.5,0.8-2.6,2.2c-1,1.5-1.7,2.7-1.9,3.6c0.6,0.7,1.5,1.4,2.8,2.4
		c1.3,0.9,2.4,1.6,3.3,2c0.4-0.3,1-0.9,1.7-1.7c0.7-0.8,1.2-1.6,1.7-2.4c0.6,0.7,1.5,1.4,2.8,2.3c1.2,0.8,2.3,1.4,3.1,1.8
		c0.7-0.5,1.6-1.5,2.6-3c1-1.5,1.5-2.5,1.4-3.1C1357.8,284.1,1357,283.2,1355.6,282.2z"/>
	<path class="st6" d="M1400.9,253.9c1.5,1.5,2.5,3.3,3.2,5.6c0.7,2.3,1,4.5,0.8,6.7c-0.2,4.7-1.5,9.3-3.8,14
		c-2.3,4.7-4.8,8.6-7.5,11.8c-1.4-0.5-3.1-1.4-5.1-2.8c-2-1.3-3.6-2.6-4.6-3.8c0.1-0.2,0.3-0.3,0.5-0.5c0.2-0.2,0.4-0.4,0.5-0.6
		c3.6-3.7,6.3-6.9,8.1-9.6c-2.5-0.6-4.6-1.6-6.4-3.2c-1.7-1.6-2.6-3.5-2.6-5.9c0-2.1,0.6-4.2,1.7-6.5c1.2-2.2,2.6-4,4.4-5.5
		c1.8-1.4,3.5-2.2,5.3-2.2C1397.7,251.7,1399.5,252.4,1400.9,253.9z M1397.3,264.6c0.9,0,1.6,0,2.1-0.1c-0.7-0.9-1.6-1.6-2.7-2.2
		c-1.1-0.6-2.2-0.9-3.2-0.9c-0.8,0-1.4,0.2-1.9,0.5s-0.7,0.8-0.7,1.4c0.3,0.5,1.3,0.8,3.3,1.1
		C1395.1,264.5,1396.1,264.6,1397.3,264.6z"/>
	<path class="st6" d="M1408.6,276c0.2-3.4,0.3-7,0.3-10.7c0-6.9-0.3-15.2-0.8-25l10.4-0.6c0.6,8.2,0.8,16,0.8,23.4
		c0,4.7-0.1,8.5-0.3,11.4c-0.9,0.5-2.3,0.9-4.3,1.3c-2,0.3-3.9,0.5-5.8,0.5L1408.6,276z"/>
</g>
<g>
	<path class="st6" d="M1459.7,269.3c0,2.1-0.6,3.8-1.8,5.2s-2.9,2.1-5.1,2.1c-1.8,0-3.5-0.7-4.8-2c-1.4-1.3-2.1-3.2-2.1-5.6
		c0-2.3,0.8-4.6,2.3-7.1s3.4-4.8,5.5-6.9l4.4,3.7c-1.6,2.2-3,4.4-4.1,6.4c2.6,0.7,4.4,1.5,5.6,2.3
		C1459.7,268.1,1459.7,268.7,1459.7,269.3z"/>
	<path class="st6" d="M1503.4,263.2c0,4.5-0.9,8.3-2.6,11.4c-1.8,0.6-4.2,1.1-7.3,1.4c-3,0.4-6.4,0.5-10,0.5c-6.8,0-13.2-0.7-19.3-2
		c0.5-4.2,1.3-8,2.6-11.7c6.8,1.1,13.5,1.6,20.2,1.6c2.5,0,4.9-0.1,7.1-0.3c-0.4-1.6-0.8-3.1-1.3-4.6c-0.5-1.5-0.8-2.4-0.9-2.7
		l10.3-2.4C1503,257.2,1503.4,260.1,1503.4,263.2z M1481.1,289.8c-1.5-1-2.5-1.9-3-2.6c0.1-0.6,0.5-1.3,1-2.3c0.5-1,1.1-1.8,1.8-2.6
		c0.7-0.8,1.3-1.2,1.8-1.3c0.5-0.1,1.2,0.1,2.2,0.6s1.9,1.1,2.7,1.9c0.8,0.7,1.3,1.3,1.4,1.8c0.2,0.6-0.3,1.8-1.4,3.4
		c-1.1,1.6-2.1,2.7-2.9,3.2C1483.7,291.5,1482.5,290.8,1481.1,289.8z"/>
	<path class="st6" d="M1547.5,252c-2.9-1.2-6.2-2.2-9.9-3.1c-3.7-0.9-6.4-1.3-8-1.3l-0.6,0.5c-0.5,2.2-0.7,4.2-0.7,5.9
		c0,1.4,0.2,2.8,0.5,4.3c-1.6,2.1-2.6,4.1-3.1,5.9l-4.7,0.1c-0.9,0-1.9-0.1-2.9-0.3c0.1-2.7,0.1-4.9,0.1-6.5
		c0-5.4-0.2-11.2-0.6-17.6l-10.3,0.6l0.4,13c0.3,12.4,0.6,19.3,1,20.9c1.5,0.6,3.3,1.1,5.5,1.4c2.2,0.3,4.5,0.5,6.8,0.5
		c4.3,0,8.2-0.6,11.6-1.9c3.8,1.3,7.1,2,9.9,2c3,0,5.9-0.7,8.5-2.1c3.3-4.4,4.9-8.4,4.9-11.8C1556,257.8,1553.2,254.3,1547.5,252z
		 M1537.7,263.2c-0.6,0.4-1.4,0.5-2.2,0.5c-0.4,0-0.7,0-0.8-0.1c-0.7-0.2-1.2-0.5-1.5-0.9c-0.3-0.4-0.5-0.9-0.5-1.5
		c0-0.4,0.1-0.8,0.3-1.2c0.2-0.4,0.6-0.6,1-0.8c0.3-0.1,0.7-0.2,1-0.2c0.9,0,1.7,0.3,2.5,0.8c0.8,0.6,1.2,1.2,1.2,1.9
		C1538.7,262.4,1538.3,262.9,1537.7,263.2z M1546.8,265.6c-1.1,0-2.3-0.2-3.5-0.5c0.6-1.2,0.9-2.4,1.2-3.7c1.5,0.3,2.8,0.7,3.9,1.2
		c1.1,0.5,1.9,1,2.4,1.5C1549.9,265.1,1548.5,265.6,1546.8,265.6z"/>
	<path class="st6" d="M1624.9,248.9l-8.8,2.8c3.8,5.7,5.8,11.1,5.8,16.2c0,1.1-0.1,2.1-0.3,3c-0.2,1-0.6,2-1.1,3.3
		c-3.1,0.7-6.2,1.2-9.5,1.5c-3.3,0.3-7.2,0.5-11.9,0.5h0c-1.7,0-3.4-0.4-5.1-1.2c-1.7-0.8-3.3-2.1-4.8-3.8c-0.5,0.8-1.3,2-2.4,3.5
		c-1.1,0.5-2.6,0.9-4.4,1.3c-1.8,0.3-3.8,0.5-5.9,0.5c-2.6,0-4.9-0.3-6.9-0.8c0.2-3.9,0.9-7.7,2.1-11.4c2.2,0.2,4.1,0.3,5.7,0.3
		c2.5,0,4.9-0.2,7.1-0.7c-2.3-4.1-4.9-8-7.7-11.6l8.9-7.5c1.5,2.2,2.8,4.3,3.8,6.2c1,2,2.1,4.5,3.4,7.6c0.7,1.6,1.3,2.8,1.8,3.5
		c0.5,0.8,1.1,1.3,1.8,1.7c0.7,0.3,1.6,0.5,2.8,0.5h0c5.1,0,9.4-0.2,13-0.5c-2.5-3.4-5.3-6-8.4-8v-10.3l20.4-7.6l0.9,0.6V248.9z"/>
</g>
<g>
	<path class="st6" d="M1112.6,202.4c-0.5,1-1.1,2-1.7,2.9c-0.7,0.9-1.3,1.7-1.9,2.4c0.2,0.3,0.5,0.7,0.9,1.1
		c0.4,0.4,0.8,0.7,1.1,0.9c0.2-0.2,0.5-0.6,0.9-1.1c0.4-0.6,0.8-1.2,1.2-1.9c0.7-1.1,1.2-2.2,1.5-3.2L1112.6,202.4z M1114.3,199.8
		c-0.2-0.2-0.4-0.4-0.6-0.6c-0.2-0.2-0.4-0.2-0.5-0.2s-0.3,0.1-0.5,0.2c-0.2,0.2-0.4,0.4-0.6,0.6c-0.2,0.2-0.3,0.4-0.3,0.5
		c0.1,0.2,0.3,0.5,0.6,0.8s0.6,0.5,0.8,0.6c0.2-0.1,0.5-0.3,0.8-0.7c0.3-0.3,0.5-0.6,0.5-0.8
		C1114.6,200.2,1114.5,200.1,1114.3,199.8z"/>
	<path class="st6" d="M1122.5,202.1l-2.6,0.2c0.1,0.8,0.2,1.4,0.2,1.8c-0.3,0-0.7,0-1.1-0.1c-0.3,0-0.7-0.1-1-0.2
		c0.1-0.7,0.2-1.2,0.3-1.6c0.2-1.3,0.4-2.7,0.6-4.2l-2.5-0.3l-0.4,3.2c-0.4,3-0.6,4.7-0.6,5.1c0.3,0.2,0.8,0.4,1.2,0.5
		c0.5,0.2,1,0.3,1.6,0.4c0.6,0.1,1.1,0.1,1.7,0.2c0.5,0,1,0,1.5-0.1c0.3-0.3,0.5-0.7,0.7-1.2c0.2-0.5,0.3-1,0.4-1.5
		C1122.6,203.4,1122.6,202.7,1122.5,202.1z M1119.3,208.7c-0.2-0.2-0.4-0.4-0.6-0.6c-0.2-0.2-0.4-0.2-0.5-0.2
		c-0.1,0-0.3,0.1-0.5,0.2c-0.2,0.2-0.4,0.3-0.5,0.6c-0.2,0.2-0.3,0.4-0.3,0.5c0.1,0.2,0.3,0.5,0.6,0.8s0.6,0.5,0.8,0.6
		c0.2-0.1,0.5-0.3,0.8-0.7c0.3-0.3,0.5-0.6,0.5-0.8C1119.5,209.1,1119.4,209,1119.3,208.7z"/>
	<path class="st6" d="M1135.1,201.7c-0.3-0.3-0.6-0.5-0.7-0.5c-0.1,0-0.3,0.1-0.5,0.2c-0.2,0.2-0.4,0.3-0.5,0.6
		c-0.1-0.2-0.2-0.4-0.5-0.7c-0.3-0.3-0.5-0.5-0.7-0.5c-0.2,0-0.4,0.1-0.7,0.4c-0.3,0.3-0.5,0.6-0.6,0.8c0.1,0.2,0.3,0.4,0.6,0.7
		c0.3,0.3,0.5,0.5,0.7,0.6c0.1,0,0.3-0.2,0.5-0.3c0.2-0.2,0.4-0.3,0.5-0.5c0.1,0.2,0.3,0.4,0.6,0.7c0.3,0.2,0.5,0.4,0.7,0.5
		c0.2-0.1,0.4-0.3,0.8-0.6c0.3-0.3,0.5-0.5,0.5-0.7C1135.5,202.3,1135.4,202,1135.1,201.7z M1129.1,201.9c-0.2-0.2-0.4-0.4-0.6-0.6
		c-0.2-0.2-0.4-0.2-0.5-0.2c-0.1,0-0.3,0.1-0.5,0.2c-0.2,0.2-0.4,0.4-0.5,0.6c-0.2,0.2-0.3,0.4-0.3,0.5c0.1,0.2,0.3,0.5,0.6,0.8
		c0.3,0.3,0.6,0.5,0.8,0.6c0.2-0.1,0.5-0.3,0.8-0.6c0.3-0.3,0.5-0.6,0.5-0.8C1129.3,202.3,1129.2,202.1,1129.1,201.9z"/>
	<path class="st6" d="M1144.9,206.8c-0.1-0.5-0.3-0.9-0.6-1.2c-0.3-0.3-0.7-0.5-1.1-0.6c-0.4-0.1-0.8,0-1.1,0.1
		c-0.3,0.2-0.7,0.4-1.2,0.8c-0.4,0.3-0.7,0.5-1,0.7c-0.3,0.2-0.6,0.3-1,0.4c-0.4,0.1-0.8,0.1-1.3,0c-0.4-0.1-0.8-0.2-1-0.5
		c-0.2-0.3-0.4-0.8-0.6-1.5c-1.7,0.2-3.4,0.2-5.1-0.1c-0.3,0-0.6-0.1-1-0.2l-0.2,0.2c0,0.3-0.1,0.5,0,0.6c-0.1,1.7-0.2,3-0.4,3.7
		c-1,0.1-1.7,0.1-2.3,0c-0.6-0.1-1-0.3-1.3-0.6c-0.2-0.3-0.3-0.7-0.2-1.3c0.1-0.6,0.4-1.4,1-2.4l-2-1c-1,1.5-1.6,2.8-1.8,3.9
		c-0.2,1.1,0,2,0.7,2.8s1.7,1.2,3.2,1.5c1.1,0.2,2.4,0.2,3.9,0c0.4-0.4,0.8-1,1-1.6c0.2-0.6,0.4-1.3,0.6-2c0.1-0.3,0.1-0.5,0.1-0.6
		c0.6,0,1.1,0.1,1.7,0.1c0.5,0,1,0,1.4-0.1c0.2,1.3,0.9,2,2,2.2c0.6,0.1,1.1,0.1,1.6,0c0.5-0.1,0.9-0.3,1.3-0.6
		c0.3,0.4,0.7,0.8,1.1,1.1c0.4,0.3,0.8,0.5,1.2,0.6c0.6,0.1,1.2-0.1,1.6-0.6c0.4-0.5,0.7-1.1,0.9-1.9
		C1145.1,207.9,1145.1,207.3,1144.9,206.8z M1143.3,208.3c-0.2,0-0.4,0-0.5,0c-0.3,0-0.5-0.1-0.8-0.2c-0.2-0.1-0.5-0.2-0.6-0.4
		c0.4-0.2,0.8-0.2,1.3-0.1c0.3,0.1,0.6,0.2,0.8,0.3c0.2,0.1,0.2,0.3,0.2,0.4C1143.6,208.3,1143.5,208.3,1143.3,208.3z"/>
</g>
<text transform="matrix(1 0 0 1 1517.4648 74.0168)" class="st0 st1 st10">{}</text>
</svg>
