<?xml version="1.0" encoding="utf-8"?>
<!-- Generator: Adobe Illustrator 25.0.1, SVG Export Plug-In . SVG Version: 6.00 Build 0)  -->
<svg version="1.1" id="Layer_1" xmlns="http://www.w3.org/2000/svg" xmlns:xlink="http://www.w3.org/1999/xlink" x="0px" y="0px"
	 viewBox="0 0 170 170" style="enable-background:new 0 0 170 170;" xml:space="preserve">
<style type="text/css">
	.st0{fill:#1F00FF;}
</style>
<g>
	<path class="st0" d="M161,17.7c-0.3,0-0.6,0-1,0.1c-0.4,0.1-0.7,0.1-1.1,0.2c-0.5,0.2-1.2,0.6-2.1,1.2c-0.9,0.6-2.1,1.4-3.5,2.5
		c-9.1,6.8-17.4,12.4-24.9,16.8c-7.5,4.4-14.1,7.5-19.8,9.4c-4.9,1.5-9.7,2.7-14.5,3.5c-4.8,0.8-9.5,1.2-14,1.2
		c-2.2,0-4.3-0.1-6.4-0.2c-2.1-0.2-4.2-0.4-6.3-0.8c-14.5-2.3-25-5.7-31.5-10.2c-0.9-0.6-1.9-0.8-2.9-0.8c-2.2,0-3.2,1.2-2.9,3.7
		c0.1,1,0.4,1.9,0.8,2.8c0.4,0.9,1,1.7,1.7,2.6c1.6,1.7,3.7,3.3,6.4,4.8c2.7,1.5,5.9,3,9.7,4.4c9.4,3.3,19.3,4.9,29.7,4.9
		c1.2,0,2.5,0,3.8-0.1c1.3-0.1,2.5-0.2,3.8-0.2c14.6-1.3,29.9-6.5,45.7-15.8c1.5-1.1,4.8-3.3,9.7-6.6c4.9-3.3,11.6-7.8,20-13.4
		c2.6-1.9,3.9-3.8,3.9-5.5C165.4,19.1,164,17.7,161,17.7z M100.1,74.3c-0.8-1.3-1.8-1.9-2.9-1.9c-1.2,0-2.4,0.7-3.7,2.2
		c-1.6,1.9-2.4,3.7-2.4,5.5c0,3.1,1.4,4.6,4.2,4.6c1.4,0,2.6-0.6,3.6-1.9c1-1.3,1.6-2.9,2-4.9C101.1,76.7,100.8,75.6,100.1,74.3z"/>
	<path class="st0" d="M78.7,82.5c-1.7-1.4-4.1-2.7-7.2-3.8c-3.1-1.1-6.9-2.5-11.6-4.2c-4.7-1.7-10.2-3.7-16.4-5.9
		c-1.5,0.8-2.2,1.7-2.2,2.9c0,0.8,0.4,1.8,1.1,2.9c0.7,1.1,1.9,2.3,3.5,3.5c-2.3,1.4-4.5,3-6.4,4.6c-2,1.7-3.5,3.3-4.7,4.9
		c-1.4,2-2.2,4.1-2.2,6.3c0,2.1,0.4,3.9,1.2,5.4c0.8,1.5,2.1,2.7,3.8,3.7c-1,0.4-2.3,0.7-4.1,0.9c-1.5,0.1-3.3,0.2-5.3,0.2v0
		c-7.4-0.2-11.1-3.2-11.1-8.9c0-1.6,0.5-4.4,1.4-8.5c0.5-2,1.2-4.1,2.1-6.3c0.9-2.2,2-4.4,3.3-6.7c2.5-4.4,3.7-6.8,3.7-7.3
		c0-1.6-0.8-2.4-2.3-2.4c-2,0-4.7,2.3-8,7c-3.3,4.6-5.7,9.3-7.2,14.3c-1.6,5-2.3,9.2-2.3,12.5c0,4,1,7.4,2.9,10.2
		c1.8,2.6,4.2,4.5,7.1,5.5c2.7,1,5.8,1.5,9.4,1.6l0,0c1.2,0,2,0,3.5-0.2c1.5-0.2,3.2-0.6,5.3-1.3c2.6-0.9,5-2,7.4-3.3
		c2.4-1.3,4.5-2.9,6.3-4.7c1.5,0,3,0,4.6-0.1c1.5-0.1,3-0.2,4.3-0.3c1.7-0.2,3.3-0.6,5-1c1.6-0.4,3.2-1,4.6-1.8
		c1.8-1,3.5-2.2,5.3-3.8c1.8-1.6,3.4-3.4,4.9-5.4c1-1.1,1.7-2.2,2.1-3.2c0.5-1,0.7-2,0.7-2.8C81.2,85.4,80.4,83.9,78.7,82.5z
		 M54.5,85.5c0,0.4-0.1,0.8-0.3,1.2h0.1c-0.5,1.1-1,2-1.4,2.6c-0.4,0.7-0.7,1.2-1,1.5c-0.7,1-1.5,2-2.4,3.1
		c-0.6,0.6-1.1,1.3-1.8,1.9c-1.1,1.1-2.8,1.5-4.3,0.9c-1-0.4-1.5-1.2-1.5-2.2c0-1.5,0.8-3.3,2.5-5.5c1.7-2.1,3.3-3.7,4.8-4.7
		c0.6-0.5,1.2-0.8,1.8-1.1c0.6-0.2,1.1-0.3,1.7-0.3c1.2,0,1.9,0.6,1.9,1.7C54.6,84.8,54.6,85.1,54.5,85.5z M66.5,93.4
		c-2.4,1.9-5.3,3.1-8.7,3.6c0.2-0.3,0.5-0.7,0.9-1.2c0.3-0.5,0.8-1.1,1.3-1.8c1.8-2.4,3.1-4.7,3.8-6.9c0.7-2.2,3.4-3,5.1-1.5
		c0.7,0.6,1,1.4,1,2.5C70,89.9,68.9,91.7,66.5,93.4z"/>
	<path class="st0" d="M79.3,142.1c0.3,0,0.5,0,0.8,0v-0.1C79.8,142.1,79.6,142.1,79.3,142.1z"/>
	<path class="st0" d="M152.1,64.7c-1.5,0-3.4,0.3-5.8,1c-0.8,0.3-2.9,1.4-6.3,3.3c-3.3,1.9-8,4.8-13.9,8.6
		c-5.7,3.5-11.6,7-17.8,10.3c-6.2,3.3-12.5,6.4-18.8,9.3c-2,0.8-3.6,1.8-4.7,2.9c-1.1,1.1-1.7,2.2-1.8,3.4c-0.2,2.4,0.8,3.7,3.1,3.7
		h0.2c6.6-2.6,16.1-7.3,28.5-14.1c6.1-3.5,12.5-7.2,19.1-11.2c6.6-4,13.5-8.3,20.8-13c0.6-0.4,0.9-0.9,1-1.4
		C155.9,65.8,154.7,64.9,152.1,64.7z M78.7,142.1L78.7,142.1c0.2,0,0.4,0,0.6,0C79.1,142.1,78.9,142.1,78.7,142.1z"/>
	<path class="st0" d="M49.6,141.2c3.1-3,5.5-5.7,7.2-8.1c1.7-2.4,3-4.4,4-5.9c1-1.5,1.6-2.5,2-3.1c0.5,0,0.9,0.3,1.3,0.8
		c0.4,0.5,0.7,1.2,0.9,2c1.2,6.7,2.8,10.9,4.8,12.8c1.8,1.5,4.8,2.3,9,2.3c0.2,0,0.4,0,0.6,0c0.3,0,0.5,0,0.8-0.1
		c2.6-0.3,5-1,7.1-2.2c2.5-1.3,4.6-3,6.1-5.1c3.1-4.1,4.6-8.8,4.5-14.1c-0.2-5.2-1-8.8-2.3-10.7c-0.9-1.2-2.6-1.9-5-1.9
		c-2.7,0-3.9,1.2-3.5,3.6c0.8,3,1.2,5.9,1.2,8.6c0,6.6-3.1,10.2-9.3,10.6c-2.6-0.1-4.3-0.3-5.3-0.7c-1.1-0.5-2.4-3.6-4-9.3
		c-1.6-5.3-3.4-8.1-5.3-8.2c-1.9-0.2-3.5,0.5-4.6,2.2c-4.1,7.1-8.5,13.1-13.4,18.1l-2.6,3.1c-1.1,1.3-1.2,3-0.4,4.5l0,0
		c1.3,2.2,4.2,2.6,6.1,0.8L49.6,141.2z"/>
</g>
</svg>
