<?xml version="1.0" encoding="utf-8"?>
<!-- Generator: Adobe Illustrator 25.0.1, SVG Export Plug-In . SVG Version: 6.00 Build 0)  -->
<svg version="1.1" id="Layer_1" xmlns="http://www.w3.org/2000/svg" xmlns:xlink="http://www.w3.org/1999/xlink" x="0px" y="0px"
	 viewBox="0 0 200 200" style="enable-background:new 0 0 200 200;" xml:space="preserve">
<style type="text/css">
	.st0{fill:#1F00FF;}
</style>
<g>
	<path class="st0" d="M187.9,20.4c-0.3,0-0.7,0-1.1,0.1c-0.4,0.1-0.9,0.2-1.3,0.2c-0.6,0.2-1.4,0.7-2.5,1.4c-1.1,0.7-2.5,1.7-4.2,3
		c-10.7,8-20.5,14.7-29.4,19.8c-8.9,5.2-16.6,8.9-23.4,11.1c-5.7,1.8-11.4,3.2-17.1,4.2c-5.6,1-11.2,1.5-16.5,1.5
		c-2.6,0-5.1-0.1-7.5-0.3c-2.5-0.2-4.9-0.5-7.4-0.9c-17.1-2.7-29.5-6.7-37.1-12c-1.1-0.7-2.2-1-3.4-1c-2.7,0-3.8,1.4-3.4,4.3
		c0.1,1.2,0.5,2.3,1,3.3c0.5,1,1.2,2.1,2.1,3.1c1.8,2,4.4,3.9,7.6,5.7c3.2,1.8,7,3.5,11.5,5.2c11.1,3.9,22.8,5.8,35,5.8
		c1.5,0,3-0.1,4.5-0.1c1.5-0.1,3-0.2,4.5-0.3c17.3-1.5,35.3-7.7,53.9-18.6c1.8-1.3,5.6-3.9,11.4-7.8c5.8-3.9,13.7-9.2,23.6-15.8
		c3.1-2.3,4.6-4.4,4.6-6.5C193.2,22.1,191.4,20.4,187.9,20.4z M116.1,87.2c-1-1.5-2.2-2.3-3.5-2.3c-1.4,0-2.8,0.9-4.3,2.6
		c-1.9,2.2-2.8,4.4-2.8,6.5c0,3.6,1.7,5.4,5,5.4c1.7,0,3.1-0.7,4.3-2.2c1.1-1.5,1.9-3.4,2.4-5.8C117.3,90.1,116.9,88.7,116.1,87.2z"
		/>
	<path class="st0" d="M90.8,96.8c-2-1.7-4.8-3.2-8.5-4.4c-3.6-1.3-8.2-3-13.7-5c-5.5-2-12-4.3-19.3-7c-1.8,0.9-2.6,2-2.6,3.4
		c0,1,0.4,2.1,1.3,3.4c0.9,1.3,2.3,2.7,4.2,4.2c-2.7,1.7-5.3,3.5-7.6,5.5c-2.3,2-4.2,3.9-5.5,5.7c-1.7,2.3-2.6,4.8-2.6,7.5
		c0,2.5,0.5,4.6,1.4,6.3c0.9,1.8,2.4,3.2,4.5,4.3c-1.1,0.5-2.7,0.9-4.8,1.1c-1.8,0.2-3.8,0.2-6.2,0.2v0c-8.8-0.2-13.1-3.7-13.1-10.4
		c0-1.9,0.6-5.2,1.7-10c0.6-2.4,1.4-4.8,2.5-7.4c1.1-2.6,2.4-5.2,3.9-8c2.9-5.2,4.4-8,4.4-8.6c0-1.9-0.9-2.8-2.8-2.8
		c-2.4,0-5.6,2.7-9.4,8.2c-3.9,5.4-6.7,11-8.4,16.8c-1.8,5.9-2.8,10.8-2.8,14.8c0,4.7,1.1,8.7,3.4,12.1c2.1,3.1,4.9,5.3,8.4,6.5
		c3.2,1.2,6.9,1.8,11.1,1.9l0,0c1.4,0,2.4,0.1,4.1-0.2c1.7-0.3,3.8-0.7,6.3-1.5c3-1.1,5.9-2.4,8.7-3.9c2.8-1.5,5.3-3.4,7.5-5.5
		c1.8,0,3.6,0,5.4-0.1c1.8-0.1,3.5-0.2,5.1-0.3c2-0.3,3.9-0.7,5.9-1.2c1.9-0.5,3.7-1.2,5.4-2.1c2.1-1.1,4.2-2.6,6.2-4.5
		c2.1-1.9,4-4,5.8-6.4c1.1-1.3,2-2.5,2.5-3.8c0.5-1.2,0.8-2.3,0.8-3.3C93.8,100.3,92.8,98.5,90.8,96.8z M62.3,100.4
		c0,0.4-0.2,0.9-0.4,1.4H62c-0.6,1.3-1.2,2.3-1.6,3.1c-0.5,0.8-0.9,1.4-1.1,1.7c-0.8,1.1-1.8,2.3-2.9,3.6c-0.7,0.7-1.3,1.5-2.1,2.2
		c-1.3,1.3-3.4,1.8-5.1,1c-1.2-0.5-1.8-1.4-1.8-2.6c0-1.7,1-3.9,3-6.5c2-2.5,3.9-4.3,5.7-5.5c0.7-0.6,1.4-1,2.1-1.2
		c0.7-0.3,1.3-0.4,2-0.4c1.5,0,2.2,0.7,2.2,2.1C62.4,99.6,62.3,100,62.3,100.4z M76.5,109.7c-2.8,2.3-6.2,3.7-10.2,4.3
		c0.3-0.3,0.6-0.8,1-1.4c0.4-0.6,0.9-1.3,1.5-2.1c2.1-2.9,3.6-5.6,4.5-8.2c0.9-2.6,4.1-3.5,6.1-1.7c0.8,0.7,1.2,1.7,1.2,2.9
		C80.6,105.6,79.2,107.7,76.5,109.7z"/>
	<path class="st0" d="M91.5,167.2c0.3,0,0.6,0,0.9,0v-0.1C92.1,167.2,91.8,167.2,91.5,167.2z"/>
	<path class="st0" d="M177.5,75.8c-1.8,0-4,0.4-6.9,1.2c-1,0.3-3.5,1.6-7.4,3.9c-3.9,2.3-9.4,5.7-16.4,10.1
		c-6.7,4.2-13.7,8.2-21,12.1c-7.3,3.9-14.7,7.6-22.1,10.9c-2.4,1-4.3,2.1-5.6,3.4c-1.3,1.3-2,2.6-2.1,4c-0.2,2.9,1,4.3,3.7,4.3h0.2
		c7.8-3,19-8.6,33.6-16.7c7.2-4.1,14.8-8.5,22.6-13.2c7.8-4.7,16-9.8,24.5-15.3c0.7-0.5,1.1-1,1.1-1.7
		C182,77.2,180.5,76.1,177.5,75.8z M90.8,167.2L90.8,167.2c0.2,0,0.5,0,0.7,0C91.3,167.2,91,167.2,90.8,167.2z"/>
	<path class="st0" d="M56.4,166.1c3.7-3.5,6.5-6.7,8.5-9.5c2-2.9,3.6-5.2,4.7-7c1.1-1.8,1.9-3,2.3-3.7c0.6,0,1.1,0.4,1.5,1
		c0.4,0.6,0.8,1.4,1.1,2.4c1.5,7.9,3.3,12.9,5.6,15.1c2.1,1.8,5.6,2.7,10.7,2.7c0.2,0,0.5,0,0.7,0c0.3,0,0.6-0.1,0.9-0.1
		c3.1-0.4,5.9-1.2,8.4-2.6c3-1.6,5.4-3.5,7.2-6c3.6-4.8,5.4-10.4,5.3-16.6c-0.2-6.2-1.2-10.4-2.8-12.6c-1.1-1.5-3.1-2.2-5.9-2.2
		c-3.2,0-4.5,1.4-4.1,4.2c0.9,3.6,1.4,6.9,1.4,10.2c0,7.8-3.7,12-11,12.6c-3-0.1-5.1-0.3-6.2-0.8c-1.3-0.6-2.9-4.3-4.8-11
		c-1.9-6.3-4-9.5-6.2-9.7c-2.3-0.2-4.1,0.6-5.5,2.6c-4.8,8.3-10,15.4-15.8,21.3l-3,3.6c-1.2,1.5-1.4,3.6-0.4,5.3h0
		c1.5,2.6,5,3,7.1,1L56.4,166.1z"/>
</g>
</svg>
