<?xml version="1.0" encoding="utf-8"?>
<!-- Generator: Adobe Illustrator 25.0.1, SVG Export Plug-In . SVG Version: 6.00 Build 0)  -->
<svg version="1.1" id="Layer_1" xmlns="http://www.w3.org/2000/svg" xmlns:xlink="http://www.w3.org/1999/xlink" x="0px" y="0px"
	 viewBox="0 0 170 170" style="enable-background:new 0 0 170 170;" xml:space="preserve">
<style type="text/css">
	.st0{fill:url(#SVGID_1_);}
	.st1{fill:#FFFFFF;}
</style>
<g>
	<linearGradient id="SVGID_1_" gradientUnits="userSpaceOnUse" x1="13.9277" y1="58.0869" x2="149.7689" y2="108.7525">
		<stop  offset="0" style="stop-color:#4084F6"/>
		<stop  offset="0.1032" style="stop-color:#3D71F3"/>
		<stop  offset="0.3929" style="stop-color:#3542EC"/>
		<stop  offset="0.6493" style="stop-color:#2F20E7"/>
		<stop  offset="0.8605" style="stop-color:#2B0CE4"/>
		<stop  offset="1" style="stop-color:#2A04E3"/>
	</linearGradient>
	<path class="st0" d="M127.3,157.3H44.7c-17.1,0-31-13.9-31-31V43.7c0-17.1,13.9-31,31-31h82.6c17.1,0,31,13.9,31,31v82.6
		C158.3,143.4,144.4,157.3,127.3,157.3z"/>
	<g>
		
			<image style="overflow:visible;opacity:0.3;" width="497" height="415" xlink:href="33EC1D22.png"  transform="matrix(0.24 0 0 0.24 33.819 33.2694)">
		</image>
		<g>
			<g>
				<path class="st1" d="M55.5,57.5c-0.2-1.5,0.4-2.2,1.7-2.2c0.6,0,1.2,0.2,1.7,0.5c3.9,2.7,10.2,4.8,19,6.1
					c1.3,0.2,2.5,0.4,3.8,0.5c1.3,0.1,2.5,0.1,3.8,0.1c2.8,0,5.6-0.2,8.5-0.7c2.9-0.5,5.8-1.2,8.7-2.1c3.4-1.1,7.4-3,11.9-5.7
					c4.5-2.6,9.5-6,15-10.1c0.8-0.7,1.6-1.2,2.1-1.5c0.6-0.4,1-0.6,1.3-0.7c0.2,0,0.4-0.1,0.7-0.1c0.2,0,0.4-0.1,0.6-0.1
					c1.8,0,2.7,0.9,2.7,2.7c0,1-0.8,2.1-2.4,3.3c-5.1,3.4-9.1,6.1-12.1,8.1c-3,2-4.9,3.3-5.8,4c-9.5,5.6-18.7,8.7-27.5,9.5
					c-0.8,0-1.5,0.1-2.3,0.1c-0.8,0-1.5,0.1-2.3,0.1c-6.2,0-12.2-1-17.9-3c-2.3-0.8-4.2-1.7-5.9-2.6c-1.6-0.9-2.9-1.9-3.9-2.9
					c-0.4-0.5-0.8-1-1.1-1.6C55.7,58.7,55.6,58.1,55.5,57.5z M93.7,75.8c0.8-0.9,1.5-1.3,2.2-1.3c0.7,0,1.3,0.4,1.8,1.2
					c0.4,0.7,0.6,1.5,0.5,2.1c-0.2,1.2-0.7,2.2-1.2,3c-0.6,0.8-1.3,1.1-2.2,1.1c-1.7,0-2.5-0.9-2.5-2.8C92.2,78,92.7,76.9,93.7,75.8
					z"/>
				<path class="st1" d="M84.8,80.5c-1-0.9-2.5-1.6-4.4-2.3c-1.8-0.7-4.2-1.5-7-2.5c-2.8-1-6.1-2.2-9.9-3.6c-0.9,0.5-1.3,1-1.3,1.7
					c0,0.5,0.2,1.1,0.7,1.7c0.4,0.7,1.2,1.4,2.1,2.1c-1.4,0.8-2.7,1.8-3.9,2.8c-1.2,1-2.1,2-2.8,2.9C57.4,84.7,57,86,57,87.3
					c0,1.3,0.2,2.3,0.7,3.2c0.5,0.9,1.2,1.6,2.3,2.2c-0.6,0.3-1.4,0.4-2.5,0.5c-0.9,0.1-2,0.1-3.2,0.1v0c-4.5-0.1-6.7-1.9-6.7-5.3
					c0-0.9,0.3-2.6,0.9-5.1c0.3-1.2,0.7-2.5,1.3-3.8c0.6-1.3,1.2-2.7,2-4.1c1.5-2.6,2.2-4.1,2.2-4.4c0-1-0.5-1.5-1.4-1.5
					c-1.2,0-2.8,1.4-4.8,4.2c-2,2.8-3.4,5.6-4.3,8.6c-0.9,3-1.4,5.5-1.4,7.5c0,2.4,0.6,4.5,1.7,6.2c1.1,1.6,2.5,2.7,4.3,3.3
					c1.6,0.6,3.5,0.9,5.7,1l0,0c0.7,0,1.2,0,2.1-0.1c0.9-0.1,1.9-0.4,3.2-0.8c1.5-0.6,3-1.2,4.5-2c1.4-0.8,2.7-1.7,3.8-2.8
					c0.9,0,1.8,0,2.8-0.1c0.9-0.1,1.8-0.1,2.6-0.2c1-0.1,2-0.3,3-0.6c1-0.3,1.9-0.6,2.8-1.1c1.1-0.6,2.1-1.3,3.2-2.3
					c1.1-1,2-2.1,2.9-3.3c0.6-0.7,1-1.3,1.3-1.9c0.3-0.6,0.4-1.2,0.4-1.7C86.3,82.3,85.8,81.4,84.8,80.5z M70.2,82.4
					c0,0.2-0.1,0.5-0.2,0.7h0c-0.3,0.7-0.6,1.2-0.8,1.6c-0.2,0.4-0.4,0.7-0.6,0.9c-0.4,0.6-0.9,1.2-1.5,1.9
					c-0.3,0.4-0.7,0.8-1.1,1.1c-0.7,0.7-1.7,0.9-2.6,0.5c-0.6-0.3-0.9-0.7-0.9-1.3c0-0.9,0.5-2,1.5-3.3c1-1.3,2-2.2,2.9-2.8
					c0.4-0.3,0.7-0.5,1.1-0.6c0.3-0.1,0.7-0.2,1-0.2c0.8,0,1.1,0.4,1.1,1.1C70.2,82,70.2,82.2,70.2,82.4z M77.4,87.1
					c-1.4,1.2-3.2,1.9-5.2,2.2c0.1-0.2,0.3-0.4,0.5-0.7c0.2-0.3,0.5-0.7,0.8-1.1c1.1-1.5,1.9-2.9,2.3-4.2c0.4-1.3,2.1-1.8,3.1-0.9
					c0.4,0.4,0.6,0.9,0.6,1.5C79.5,85,78.8,86.1,77.4,87.1z"/>
				<path class="st1" d="M85.1,116.5c0.2,0,0.3,0,0.5,0v0C85.4,116.5,85.3,116.5,85.1,116.5z"/>
				<path class="st1" d="M129,69.8c-0.9,0-2.1,0.2-3.5,0.6c-0.5,0.2-1.8,0.8-3.8,2c-2,1.2-4.8,2.9-8.4,5.2c-3.4,2.1-7,4.2-10.7,6.2
					c-3.7,2-7.5,3.9-11.3,5.6c-1.2,0.5-2.2,1.1-2.8,1.8c-0.7,0.7-1,1.3-1.1,2c-0.1,1.5,0.5,2.2,1.9,2.2h0.1c4-1.5,9.7-4.4,17.2-8.5
					c3.7-2.1,7.5-4.4,11.5-6.8c4-2.4,8.2-5,12.5-7.8c0.4-0.2,0.6-0.5,0.6-0.9C131.3,70.5,130.6,70,129,69.8z M84.7,116.5L84.7,116.5
					c0.1,0,0.2,0,0.4,0C85,116.5,84.9,116.5,84.7,116.5z"/>
				<path class="st1" d="M67.2,116c1.9-1.8,3.3-3.4,4.4-4.9c1-1.5,1.8-2.7,2.4-3.6c0.6-0.9,1-1.5,1.2-1.9c0.3,0,0.5,0.2,0.8,0.5
					c0.2,0.3,0.4,0.7,0.5,1.2c0.7,4,1.7,6.6,2.9,7.7c1.1,0.9,2.9,1.4,5.4,1.4c0.1,0,0.2,0,0.4,0c0.2,0,0.3,0,0.5,0
					c1.6-0.2,3-0.6,4.3-1.3c1.5-0.8,2.8-1.8,3.7-3c1.9-2.5,2.8-5.3,2.7-8.5c-0.1-3.1-0.6-5.3-1.4-6.5c-0.6-0.8-1.6-1.1-3-1.1
					c-1.6,0-2.3,0.7-2.1,2.1c0.5,1.8,0.7,3.5,0.7,5.2c0,4-1.9,6.1-5.6,6.4c-1.5,0-2.6-0.2-3.2-0.4c-0.7-0.3-1.5-2.2-2.4-5.6
					c-1-3.2-2-4.9-3.2-4.9c-1.2-0.1-2.1,0.3-2.8,1.3c-2.4,4.3-5.1,7.9-8.1,10.9l-1.5,1.8c-0.6,0.8-0.7,1.8-0.2,2.7l0,0
					c0.8,1.3,2.6,1.5,3.6,0.5L67.2,116z"/>
			</g>
		</g>
	</g>
</g>
<g>
	
		<image style="overflow:visible;opacity:0.3;" width="363" height="309" xlink:href="33EC1D26.png"  transform="matrix(0.24 0 0 0.24 196.0885 48.8203)">
	</image>
	<g>
		<g>
			<path class="st1" d="M213.1,67.6c-0.1-1,0.3-1.5,1.2-1.5c0.4,0,0.8,0.1,1.2,0.3c2.6,1.8,6.8,3.1,12.6,4.1
				c0.8,0.1,1.7,0.2,2.5,0.3c0.8,0.1,1.7,0.1,2.5,0.1c1.8,0,3.7-0.2,5.6-0.5c1.9-0.3,3.8-0.8,5.8-1.4c2.3-0.8,4.9-2,7.9-3.7
				c3-1.7,6.3-4,10-6.7c0.6-0.4,1-0.8,1.4-1c0.4-0.2,0.7-0.4,0.9-0.5c0.1,0,0.3-0.1,0.4-0.1c0.1,0,0.3,0,0.4,0
				c1.2,0,1.8,0.6,1.8,1.8c0,0.7-0.5,1.4-1.6,2.2c-3.4,2.2-6,4-8,5.4c-2,1.3-3.2,2.2-3.9,2.6c-6.3,3.7-12.4,5.8-18.2,6.3
				c-0.5,0-1,0.1-1.5,0.1c-0.5,0-1,0-1.5,0c-4.1,0-8.1-0.7-11.8-2c-1.5-0.5-2.8-1.1-3.9-1.7c-1.1-0.6-1.9-1.3-2.6-1.9
				c-0.3-0.3-0.5-0.7-0.7-1C213.2,68.4,213.1,68,213.1,67.6z M238.3,79.8c0.5-0.6,1-0.9,1.5-0.9c0.4,0,0.8,0.3,1.2,0.8
				c0.3,0.5,0.4,1,0.3,1.4c-0.2,0.8-0.4,1.5-0.8,2c-0.4,0.5-0.9,0.8-1.4,0.8c-1.1,0-1.7-0.6-1.7-1.8
				C237.4,81.2,237.7,80.5,238.3,79.8z"/>
			<path class="st1" d="M232.4,82.9c-0.7-0.6-1.6-1.1-2.9-1.5c-1.2-0.4-2.8-1-4.6-1.7c-1.9-0.7-4.1-1.5-6.5-2.4
				c-0.6,0.3-0.9,0.7-0.9,1.2c0,0.3,0.1,0.7,0.4,1.1c0.3,0.4,0.8,0.9,1.4,1.4c-0.9,0.6-1.8,1.2-2.6,1.9c-0.8,0.7-1.4,1.3-1.9,1.9
				c-0.6,0.8-0.9,1.6-0.9,2.5c0,0.8,0.2,1.5,0.5,2.1c0.3,0.6,0.8,1.1,1.5,1.5c-0.4,0.2-0.9,0.3-1.6,0.4c-0.6,0.1-1.3,0.1-2.1,0.1v0
				c-3-0.1-4.4-1.3-4.4-3.5c0-0.6,0.2-1.8,0.6-3.4c0.2-0.8,0.5-1.6,0.8-2.5c0.4-0.9,0.8-1.8,1.3-2.7c1-1.7,1.5-2.7,1.5-2.9
				c0-0.6-0.3-1-0.9-1c-0.8,0-1.9,0.9-3.2,2.8c-1.3,1.8-2.3,3.7-2.9,5.7c-0.6,2-0.9,3.7-0.9,5c0,1.6,0.4,2.9,1.2,4.1
				c0.7,1,1.7,1.8,2.8,2.2c1.1,0.4,2.3,0.6,3.7,0.6l0,0c0.5,0,0.8,0,1.4-0.1c0.6-0.1,1.3-0.2,2.1-0.5c1-0.4,2-0.8,3-1.3
				c0.9-0.5,1.8-1.1,2.5-1.9c0.6,0,1.2,0,1.8,0c0.6,0,1.2-0.1,1.7-0.1c0.7-0.1,1.3-0.2,2-0.4c0.7-0.2,1.3-0.4,1.8-0.7
				c0.7-0.4,1.4-0.9,2.1-1.5c0.7-0.6,1.4-1.4,1.9-2.2c0.4-0.4,0.7-0.9,0.9-1.3c0.2-0.4,0.3-0.8,0.3-1.1
				C233.4,84.1,233.1,83.5,232.4,82.9z M222.8,84.1c0,0.1-0.1,0.3-0.1,0.5h0c-0.2,0.4-0.4,0.8-0.6,1c-0.2,0.3-0.3,0.5-0.4,0.6
				c-0.3,0.4-0.6,0.8-1,1.2c-0.2,0.3-0.5,0.5-0.7,0.8c-0.4,0.5-1.1,0.6-1.7,0.4c-0.4-0.2-0.6-0.5-0.6-0.9c0-0.6,0.3-1.3,1-2.2
				c0.7-0.8,1.3-1.5,1.9-1.9c0.2-0.2,0.5-0.3,0.7-0.4c0.2-0.1,0.5-0.1,0.7-0.1c0.5,0,0.7,0.2,0.7,0.7
				C222.8,83.8,222.8,84,222.8,84.1z M227.6,87.3c-0.9,0.8-2.1,1.3-3.5,1.4c0.1-0.1,0.2-0.3,0.3-0.5c0.1-0.2,0.3-0.4,0.5-0.7
				c0.7-1,1.2-1.9,1.5-2.8c0.3-0.9,1.4-1.2,2.1-0.6c0.3,0.2,0.4,0.6,0.4,1C229,85.9,228.5,86.6,227.6,87.3z"/>
			<path class="st1" d="M232.7,106.7c0.1,0,0.2,0,0.3,0v0C232.9,106.7,232.8,106.7,232.7,106.7z"/>
			<path class="st1" d="M261.7,75.8c-0.6,0-1.4,0.1-2.3,0.4c-0.3,0.1-1.2,0.6-2.5,1.3c-1.3,0.8-3.2,1.9-5.5,3.4
				c-2.3,1.4-4.6,2.8-7.1,4.1c-2.5,1.3-5,2.6-7.5,3.7c-0.8,0.3-1.4,0.7-1.9,1.2c-0.4,0.4-0.7,0.9-0.7,1.4c-0.1,1,0.3,1.5,1.3,1.5
				h0.1c2.6-1,6.4-2.9,11.4-5.6c2.5-1.4,5-2.9,7.6-4.5c2.6-1.6,5.4-3.3,8.3-5.2c0.2-0.2,0.4-0.4,0.4-0.6
				C263.3,76.3,262.8,75.9,261.7,75.8z M232.4,106.7L232.4,106.7c0.1,0,0.2,0,0.2,0C232.6,106.7,232.5,106.7,232.4,106.7z"/>
			<path class="st1" d="M220.8,106.4c1.2-1.2,2.2-2.3,2.9-3.2c0.7-1,1.2-1.8,1.6-2.4c0.4-0.6,0.6-1,0.8-1.2c0.2,0,0.4,0.1,0.5,0.3
				c0.1,0.2,0.3,0.5,0.4,0.8c0.5,2.7,1.1,4.4,1.9,5.1c0.7,0.6,1.9,0.9,3.6,0.9c0.1,0,0.2,0,0.2,0c0.1,0,0.2,0,0.3,0
				c1-0.1,2-0.4,2.8-0.9c1-0.5,1.8-1.2,2.4-2c1.2-1.6,1.8-3.5,1.8-5.6c-0.1-2.1-0.4-3.5-0.9-4.3c-0.4-0.5-1-0.7-2-0.7
				c-1.1,0-1.5,0.5-1.4,1.4c0.3,1.2,0.5,2.3,0.5,3.4c0,2.6-1.2,4.1-3.7,4.2c-1,0-1.7-0.1-2.1-0.3c-0.4-0.2-1-1.4-1.6-3.7
				c-0.6-2.1-1.3-3.2-2.1-3.3c-0.8-0.1-1.4,0.2-1.8,0.9c-1.6,2.8-3.4,5.2-5.3,7.2l-1,1.2c-0.4,0.5-0.5,1.2-0.1,1.8l0,0
				C218.8,107,220,107.1,220.8,106.4L220.8,106.4z"/>
		</g>
	</g>
</g>
</svg>
